<svg xmlns="http://www.w3.org/2000/svg" xmlns:xlink="http://www.w3.org/1999/xlink" width="500" zoomAndPan="magnify" viewBox="0 0 375 374.999991" height="500" preserveAspectRatio="xMidYMid meet" version="1.0"><defs><g/><clipPath id="33f9231030"><path d="M 59.253906 59.253906 L 315.753906 59.253906 L 315.753906 315.753906 L 59.253906 315.753906 Z M 59.253906 59.253906 " clip-rule="nonzero"/></clipPath><clipPath id="cbb44a1f7b"><path d="M 64.867188 64.867188 L 310.117188 64.867188 L 310.117188 310.117188 L 64.867188 310.117188 Z M 64.867188 64.867188 " clip-rule="nonzero"/></clipPath><clipPath id="10aa2a23c0"><path d="M 71.515625 227.894531 L 303.265625 227.894531 L 303.265625 303.265625 L 71.515625 303.265625 Z M 71.515625 227.894531 " clip-rule="nonzero"/></clipPath><clipPath id="d02bda6da2"><path d="M 90.046875 134.808594 L 97.546875 134.808594 L 97.546875 142.308594 L 90.046875 142.308594 Z M 90.046875 134.808594 " clip-rule="nonzero"/></clipPath><clipPath id="9baf9dc7d7"><path d="M 277.320312 134.808594 L 284.820312 134.808594 L 284.820312 142.308594 L 277.320312 142.308594 Z M 277.320312 134.808594 " clip-rule="nonzero"/></clipPath><clipPath id="ca0db9ae95"><path d="M 139.878906 131 L 185 131 L 185 143 L 139.878906 143 Z M 139.878906 131 " clip-rule="nonzero"/></clipPath><clipPath id="5d940f75f7"><path d="M 194 131 L 239.628906 131 L 239.628906 143 L 194 143 Z M 194 131 " clip-rule="nonzero"/></clipPath><clipPath id="eea56938c2"><path d="M 140 103.832031 L 239.628906 103.832031 L 239.628906 126 L 140 126 Z M 140 103.832031 " clip-rule="nonzero"/></clipPath><clipPath id="cb5cb794fe"><path d="M 174 214 L 187 214 L 187 227.582031 L 174 227.582031 Z M 174 214 " clip-rule="nonzero"/></clipPath><clipPath id="19744d9efc"><path d="M 192 214 L 206 214 L 206 227.582031 L 192 227.582031 Z M 192 214 " clip-rule="nonzero"/></clipPath></defs><g clip-path="url(#33f9231030)"><path fill="#191817" d="M 187.503906 59.253906 C 116.671875 59.253906 59.253906 116.671875 59.253906 187.503906 C 59.253906 258.335938 116.671875 315.753906 187.503906 315.753906 C 258.335938 315.753906 315.753906 258.335938 315.753906 187.503906 C 315.753906 116.671875 258.335938 59.253906 187.503906 59.253906 " fill-opacity="1" fill-rule="nonzero"/></g><g clip-path="url(#cbb44a1f7b)"><path fill="#ffffff" d="M 302.53125 220.1875 C 299.421875 230.773438 294.675781 240.816406 288.785156 250.066406 C 283.921875 257.59375 278.390625 264.667969 272.175781 271.101562 C 271.371094 271.980469 270.472656 272.769531 269.621094 273.597656 C 268.753906 274.410156 267.910156 275.253906 267.023438 276.046875 L 264.332031 278.390625 L 262.984375 279.5625 L 261.585938 280.675781 L 258.796875 282.902344 C 257.851562 283.625 256.875 284.308594 255.917969 285.015625 C 254.027344 286.464844 252.015625 287.738281 250.042969 289.078125 C 249.757812 289.269531 249.460938 289.46875 249.148438 289.679688 C 248.828125 289.871094 248.492188 290.074219 248.144531 290.28125 C 247.449219 290.699219 246.703125 291.144531 245.90625 291.621094 C 244.332031 292.609375 242.46875 293.542969 240.457031 294.613281 C 239.949219 294.871094 239.445312 295.15625 238.910156 295.414062 C 238.371094 295.664062 237.824219 295.917969 237.265625 296.175781 C 236.144531 296.691406 234.988281 297.226562 233.792969 297.78125 C 231.34375 298.738281 228.789062 299.886719 226 300.78125 C 215 304.769531 201.269531 307.234375 187.492188 307.292969 C 173.714844 307.234375 159.984375 304.769531 148.984375 300.78125 C 146.199219 299.886719 143.644531 298.738281 141.191406 297.78125 C 139.996094 297.226562 138.839844 296.691406 137.722656 296.175781 C 137.164062 295.917969 136.613281 295.664062 136.078125 295.414062 C 135.542969 295.15625 135.035156 294.871094 134.53125 294.613281 C 132.519531 293.542969 130.65625 292.609375 129.082031 291.621094 C 128.285156 291.144531 127.535156 290.699219 126.839844 290.28125 C 126.492188 290.074219 126.160156 289.875 125.835938 289.679688 C 125.527344 289.472656 125.226562 289.269531 124.945312 289.078125 C 117.457031 284.175781 110.425781 278.601562 104.035156 272.34375 C 97.292969 265.609375 91.398438 258.066406 86.203125 250.066406 C 80.3125 240.816406 75.5625 230.773438 72.453125 220.1875 C 69.21875 209.636719 67.71875 198.566406 67.625 187.492188 C 67.71875 176.417969 69.21875 165.347656 72.453125 154.796875 C 75.5625 144.210938 80.3125 134.167969 86.203125 124.917969 C 91.066406 117.390625 96.59375 110.316406 102.808594 103.882812 C 103.613281 103.003906 104.511719 102.21875 105.363281 101.386719 C 106.230469 100.574219 107.074219 99.730469 107.960938 98.9375 L 110.65625 96.59375 L 112 95.421875 L 113.398438 94.3125 L 116.1875 92.082031 C 117.132812 91.359375 118.109375 90.675781 119.066406 89.96875 C 120.957031 88.519531 122.972656 87.246094 124.941406 85.90625 C 125.226562 85.714844 125.523438 85.515625 125.835938 85.304688 C 126.15625 85.113281 126.492188 84.914062 126.839844 84.703125 C 127.535156 84.285156 128.28125 83.839844 129.078125 83.363281 C 130.65625 82.375 132.515625 81.441406 134.527344 80.375 C 135.035156 80.113281 135.542969 79.828125 136.078125 79.574219 C 136.613281 79.320312 137.164062 79.066406 137.722656 78.808594 C 138.839844 78.292969 139.996094 77.757812 141.191406 77.203125 C 143.644531 76.246094 146.199219 75.097656 148.984375 74.203125 C 159.984375 70.214844 173.714844 67.75 187.492188 67.691406 C 201.269531 67.75 215 70.214844 226 74.203125 C 228.789062 75.097656 231.339844 76.246094 233.792969 77.203125 C 234.988281 77.757812 236.144531 78.292969 237.261719 78.808594 C 237.820312 79.066406 238.371094 79.320312 238.910156 79.570312 C 239.441406 79.828125 239.949219 80.113281 240.457031 80.375 C 242.464844 81.441406 244.332031 82.375 245.902344 83.363281 C 246.699219 83.839844 247.449219 84.285156 248.144531 84.703125 C 248.492188 84.910156 248.828125 85.113281 249.148438 85.304688 C 249.457031 85.515625 249.757812 85.714844 250.042969 85.90625 C 257.527344 90.808594 264.558594 96.382812 270.949219 102.640625 C 277.691406 109.375 283.585938 116.917969 288.78125 124.917969 C 294.675781 134.167969 299.421875 144.210938 302.53125 154.796875 C 305.769531 165.347656 307.265625 176.417969 307.359375 187.492188 C 307.265625 198.566406 305.769531 209.636719 302.53125 220.1875 Z M 310.117188 187.410156 L 310.113281 187.402344 C 310.015625 176.09375 308.492188 164.78125 305.199219 153.992188 C 302.03125 143.171875 297.179688 132.902344 291.128906 123.46875 L 288.222656 119.097656 C 288.222656 119.097656 287.382812 117.921875 286.121094 116.160156 C 284.90625 114.359375 283.050781 112.140625 281.277344 109.863281 C 279.363281 107.699219 277.53125 105.460938 275.988281 103.9375 C 274.492188 102.375 273.492188 101.332031 273.492188 101.332031 C 273.492188 101.332031 273.242188 101.074219 272.785156 100.636719 C 272.332031 100.199219 271.683594 99.570312 270.90625 98.820312 C 269.386719 97.273438 267.179688 95.40625 265.019531 93.496094 C 263.90625 92.574219 262.765625 91.691406 261.710938 90.839844 C 261.179688 90.417969 260.667969 90.011719 260.183594 89.625 C 259.679688 89.261719 259.207031 88.921875 258.765625 88.605469 C 257.011719 87.335938 255.839844 86.492188 255.839844 86.492188 C 255.839844 86.492188 255.585938 86.285156 255.171875 86.015625 C 254.761719 85.746094 254.21875 85.378906 253.675781 85.015625 C 252.585938 84.285156 251.496094 83.554688 251.496094 83.554688 C 251.203125 83.359375 250.898438 83.152344 250.582031 82.941406 C 250.253906 82.742188 249.914062 82.535156 249.558594 82.320312 C 248.847656 81.890625 248.082031 81.433594 247.269531 80.945312 C 245.660156 79.929688 243.753906 78.972656 241.695312 77.875 C 241.179688 77.609375 240.660156 77.316406 240.113281 77.054688 C 239.5625 76.796875 239 76.535156 238.429688 76.269531 C 237.289062 75.738281 236.101562 75.191406 234.878906 74.625 C 232.371094 73.636719 229.757812 72.464844 226.90625 71.546875 C 215.648438 67.457031 201.589844 64.921875 187.492188 64.867188 C 173.394531 64.921875 159.335938 67.457031 148.078125 71.546875 C 145.226562 72.464844 142.613281 73.640625 140.105469 74.625 C 138.882812 75.191406 137.699219 75.738281 136.554688 76.269531 C 135.980469 76.535156 135.421875 76.796875 134.871094 77.054688 C 134.324219 77.316406 133.804688 77.609375 133.289062 77.875 C 131.230469 78.972656 129.324219 79.929688 127.714844 80.945312 C 126.902344 81.433594 126.136719 81.894531 125.425781 82.320312 C 125.070312 82.535156 124.730469 82.742188 124.402344 82.941406 C 124.082031 83.15625 123.78125 83.359375 123.488281 83.554688 C 123.488281 83.554688 122.398438 84.285156 121.308594 85.015625 C 120.765625 85.378906 120.222656 85.746094 119.8125 86.019531 C 119.402344 86.285156 119.144531 86.492188 119.144531 86.492188 C 119.144531 86.492188 117.976562 87.335938 116.21875 88.605469 C 115.78125 88.921875 115.304688 89.261719 114.800781 89.625 C 114.316406 90.011719 113.804688 90.417969 113.273438 90.839844 C 112.21875 91.691406 111.078125 92.574219 109.96875 93.496094 C 107.804688 95.40625 105.601562 97.273438 104.082031 98.820312 C 103.300781 99.570312 102.652344 100.199219 102.199219 100.636719 C 101.742188 101.074219 101.492188 101.332031 101.492188 101.332031 C 101.492188 101.332031 100.492188 102.375 98.996094 103.9375 C 97.453125 105.460938 95.621094 107.699219 93.710938 109.863281 C 91.933594 112.140625 90.078125 114.359375 88.863281 116.160156 C 87.601562 117.921875 86.761719 119.097656 86.761719 119.097656 L 83.855469 123.46875 C 77.804688 132.902344 72.953125 143.175781 69.785156 153.992188 C 66.492188 164.78125 64.972656 176.09375 64.871094 187.402344 L 64.867188 187.410156 L 64.867188 187.574219 L 64.871094 187.582031 C 64.972656 198.890625 66.492188 210.203125 69.785156 220.992188 C 72.953125 231.8125 77.804688 242.082031 83.855469 251.515625 L 86.761719 255.886719 C 86.761719 255.886719 87.605469 257.0625 88.863281 258.824219 C 90.078125 260.625 91.933594 262.84375 93.710938 265.121094 C 95.621094 267.289062 97.453125 269.523438 98.996094 271.046875 C 100.492188 272.609375 101.492188 273.652344 101.492188 273.652344 C 101.492188 273.652344 101.742188 273.910156 102.199219 274.347656 C 102.652344 274.785156 103.300781 275.414062 104.082031 276.164062 C 105.601562 277.714844 107.804688 279.578125 109.96875 281.488281 C 111.078125 282.410156 112.21875 283.296875 113.273438 284.144531 C 113.804688 284.566406 114.316406 284.972656 114.800781 285.359375 C 115.304688 285.722656 115.78125 286.066406 116.21875 286.382812 C 117.976562 287.648438 119.144531 288.492188 119.144531 288.492188 C 119.144531 288.492188 119.402344 288.699219 119.8125 288.96875 C 120.222656 289.242188 120.765625 289.605469 121.308594 289.96875 C 122.398438 290.699219 123.488281 291.429688 123.488281 291.429688 C 123.78125 291.625 124.085938 291.832031 124.402344 292.046875 C 124.730469 292.246094 125.070312 292.449219 125.425781 292.664062 C 126.136719 293.09375 126.902344 293.550781 127.71875 294.042969 C 129.328125 295.054688 131.230469 296.011719 133.289062 297.109375 C 133.804688 297.378906 134.324219 297.667969 134.871094 297.933594 C 135.421875 298.1875 135.984375 298.449219 136.554688 298.714844 C 137.699219 299.246094 138.882812 299.792969 140.105469 300.363281 C 142.613281 301.347656 145.226562 302.519531 148.078125 303.441406 C 159.335938 307.527344 173.394531 310.0625 187.492188 310.117188 C 201.589844 310.0625 215.648438 307.527344 226.90625 303.4375 C 229.757812 302.519531 232.375 301.34375 234.878906 300.359375 C 236.101562 299.792969 237.289062 299.246094 238.429688 298.714844 C 239.003906 298.449219 239.5625 298.1875 240.113281 297.933594 C 240.660156 297.667969 241.179688 297.378906 241.699219 297.109375 C 243.753906 296.011719 245.660156 295.054688 247.269531 294.042969 C 248.082031 293.550781 248.847656 293.09375 249.558594 292.664062 C 249.914062 292.449219 250.253906 292.242188 250.582031 292.046875 C 250.902344 291.828125 251.207031 291.625 251.496094 291.429688 C 251.496094 291.429688 252.585938 290.699219 253.675781 289.96875 C 254.21875 289.605469 254.765625 289.242188 255.171875 288.96875 C 255.585938 288.699219 255.839844 288.492188 255.839844 288.492188 C 255.839844 288.492188 257.011719 287.648438 258.765625 286.382812 C 259.207031 286.066406 259.679688 285.722656 260.183594 285.359375 C 260.667969 284.972656 261.179688 284.566406 261.710938 284.144531 C 262.765625 283.296875 263.90625 282.410156 265.019531 281.488281 C 267.179688 279.578125 269.386719 277.714844 270.90625 276.164062 C 271.683594 275.414062 272.332031 274.785156 272.785156 274.347656 C 273.242188 273.910156 273.492188 273.652344 273.492188 273.652344 C 273.492188 273.652344 274.492188 272.609375 275.988281 271.046875 C 277.53125 269.523438 279.363281 267.289062 281.277344 265.121094 C 283.050781 262.84375 284.910156 260.625 286.121094 258.824219 C 287.382812 257.0625 288.222656 255.886719 288.222656 255.886719 L 291.128906 251.515625 C 297.179688 242.082031 302.03125 231.8125 305.199219 220.992188 C 308.492188 210.203125 310.015625 198.890625 310.113281 187.582031 L 310.117188 187.574219 L 310.117188 187.410156 " fill-opacity="1" fill-rule="nonzero"/></g><g clip-path="url(#10aa2a23c0)"><path fill="#ffffff" d="M 303.265625 187.390625 C 303.265625 189.285156 303.21875 191.179688 303.125 193.074219 C 303.03125 194.96875 302.890625 196.859375 302.707031 198.746094 C 302.519531 200.632812 302.289062 202.515625 302.011719 204.390625 C 301.730469 206.269531 301.40625 208.136719 301.039062 209.996094 C 300.667969 211.855469 300.253906 213.707031 299.792969 215.546875 C 299.332031 217.382812 298.824219 219.210938 298.273438 221.027344 C 297.722656 222.839844 297.128906 224.640625 296.492188 226.425781 C 295.851562 228.210938 295.167969 229.980469 294.445312 231.734375 C 293.71875 233.484375 292.949219 235.21875 292.140625 236.933594 C 291.328125 238.648438 290.476562 240.339844 289.582031 242.011719 C 288.6875 243.683594 287.753906 245.335938 286.777344 246.960938 C 285.804688 248.585938 284.789062 250.191406 283.734375 251.765625 C 282.683594 253.34375 281.589844 254.894531 280.460938 256.417969 C 279.332031 257.941406 278.164062 259.433594 276.960938 260.898438 C 275.757812 262.367188 274.519531 263.800781 273.246094 265.207031 C 271.972656 266.613281 270.667969 267.984375 269.324219 269.324219 C 267.984375 270.667969 266.613281 271.972656 265.207031 273.246094 C 263.800781 274.519531 262.367188 275.757812 260.898438 276.960938 C 259.433594 278.164062 257.9375 279.332031 256.417969 280.460938 C 254.894531 281.589844 253.34375 282.683594 251.765625 283.734375 C 250.191406 284.789062 248.585938 285.804688 246.960938 286.777344 C 245.335938 287.753906 243.683594 288.6875 242.011719 289.582031 C 240.339844 290.476562 238.648438 291.328125 236.933594 292.140625 C 235.21875 292.949219 233.484375 293.71875 231.734375 294.445312 C 229.980469 295.167969 228.210938 295.851562 226.425781 296.492188 C 224.640625 297.128906 222.839844 297.722656 221.027344 298.273438 C 219.210938 298.824219 217.382812 299.332031 215.546875 299.792969 C 213.707031 300.253906 211.855469 300.667969 209.996094 301.039062 C 208.136719 301.40625 206.269531 301.730469 204.390625 302.011719 C 202.515625 302.289062 200.632812 302.519531 198.746094 302.707031 C 196.859375 302.890625 194.96875 303.03125 193.074219 303.125 C 191.179688 303.21875 189.285156 303.265625 187.390625 303.265625 C 185.492188 303.265625 183.597656 303.21875 181.703125 303.125 C 179.808594 303.03125 177.917969 302.890625 176.03125 302.707031 C 174.144531 302.519531 172.261719 302.289062 170.386719 302.011719 C 168.511719 301.730469 166.644531 301.40625 164.785156 301.039062 C 162.921875 300.667969 161.074219 300.253906 159.234375 299.792969 C 157.394531 299.332031 155.566406 298.824219 153.753906 298.273438 C 151.9375 297.722656 150.136719 297.128906 148.351562 296.492188 C 146.566406 295.851562 144.796875 295.167969 143.046875 294.445312 C 141.292969 293.71875 139.5625 292.949219 137.847656 292.140625 C 136.132812 291.328125 134.4375 290.476562 132.765625 289.582031 C 131.09375 288.6875 129.445312 287.753906 127.816406 286.777344 C 126.191406 285.804688 124.589844 284.789062 123.011719 283.734375 C 121.4375 282.683594 119.886719 281.589844 118.363281 280.460938 C 116.839844 279.332031 115.34375 278.164062 113.878906 276.960938 C 112.414062 275.757812 110.976562 274.519531 109.574219 273.246094 C 108.167969 271.972656 106.792969 270.667969 105.453125 269.324219 C 104.113281 267.984375 102.804688 266.613281 101.53125 265.207031 C 100.257812 263.800781 99.019531 262.367188 97.816406 260.898438 C 96.613281 259.433594 95.449219 257.9375 94.316406 256.417969 C 93.1875 254.894531 92.097656 253.34375 91.042969 251.765625 C 89.988281 250.191406 88.976562 248.585938 88 246.960938 C 87.023438 245.335938 86.089844 243.683594 85.195312 242.011719 C 84.304688 240.339844 83.449219 238.648438 82.640625 236.933594 C 81.828125 235.21875 81.0625 233.484375 80.335938 231.734375 C 79.609375 229.980469 78.925781 228.210938 78.289062 226.425781 C 77.648438 224.640625 77.054688 222.839844 76.503906 221.027344 C 75.953125 219.210938 75.449219 217.382812 74.988281 215.546875 C 74.527344 213.707031 74.109375 211.855469 73.742188 209.996094 C 73.371094 208.136719 73.046875 206.269531 72.769531 204.390625 C 72.492188 202.515625 72.257812 200.632812 72.074219 198.746094 C 71.886719 196.859375 71.746094 194.96875 71.652344 193.074219 C 71.5625 191.179688 71.515625 189.285156 71.515625 187.390625 C 71.515625 185.492188 71.5625 183.597656 71.652344 181.703125 C 71.746094 179.808594 71.886719 177.917969 72.074219 176.03125 C 72.257812 174.144531 72.492188 172.261719 72.769531 170.386719 C 73.046875 168.511719 73.371094 166.644531 73.742188 164.785156 C 74.109375 162.921875 74.527344 161.074219 74.988281 159.234375 C 75.449219 157.394531 75.953125 155.566406 76.503906 153.753906 C 77.054688 151.9375 77.648438 150.136719 78.289062 148.351562 C 78.925781 146.566406 79.609375 144.796875 80.335938 143.046875 C 81.0625 141.292969 81.828125 139.5625 82.640625 137.847656 C 83.449219 136.132812 84.304688 134.4375 85.195312 132.765625 C 86.089844 131.09375 87.027344 129.445312 88 127.816406 C 88.976562 126.191406 89.988281 124.589844 91.042969 123.011719 C 92.097656 121.4375 93.1875 119.886719 94.316406 118.363281 C 95.449219 116.839844 96.613281 115.34375 97.816406 113.878906 C 99.019531 112.414062 100.257812 110.976562 101.53125 109.574219 C 102.804688 108.167969 104.113281 106.792969 105.453125 105.453125 C 106.792969 104.113281 108.167969 102.804688 109.574219 101.53125 C 110.976562 100.257812 112.414062 99.019531 113.878906 97.816406 C 115.34375 96.613281 116.839844 95.449219 118.363281 94.316406 C 119.886719 93.1875 121.4375 92.097656 123.011719 91.042969 C 124.589844 89.988281 126.191406 88.976562 127.816406 88 C 129.445312 87.027344 131.09375 86.089844 132.765625 85.195312 C 134.4375 84.304688 136.132812 83.449219 137.847656 82.640625 C 139.5625 81.828125 141.292969 81.0625 143.046875 80.335938 C 144.796875 79.609375 146.566406 78.925781 148.351562 78.289062 C 150.136719 77.648438 151.9375 77.054688 153.753906 76.503906 C 155.566406 75.953125 157.394531 75.449219 159.234375 74.988281 C 161.074219 74.527344 162.921875 74.109375 164.785156 73.742188 C 166.644531 73.371094 168.511719 73.046875 170.386719 72.769531 C 172.261719 72.492188 174.144531 72.257812 176.03125 72.074219 C 177.917969 71.886719 179.808594 71.746094 181.703125 71.652344 C 183.597656 71.5625 185.492188 71.515625 187.390625 71.515625 C 189.285156 71.515625 191.179688 71.5625 193.074219 71.652344 C 194.96875 71.746094 196.859375 71.886719 198.746094 72.074219 C 200.632812 72.257812 202.515625 72.492188 204.390625 72.769531 C 206.269531 73.046875 208.136719 73.371094 209.996094 73.742188 C 211.855469 74.109375 213.707031 74.527344 215.546875 74.988281 C 217.382812 75.449219 219.210938 75.953125 221.027344 76.503906 C 222.839844 77.054688 224.640625 77.648438 226.425781 78.289062 C 228.210938 78.925781 229.980469 79.609375 231.734375 80.335938 C 233.484375 81.0625 235.21875 81.828125 236.933594 82.640625 C 238.648438 83.449219 240.339844 84.304688 242.011719 85.195312 C 243.683594 86.089844 245.335938 87.027344 246.960938 88 C 248.585938 88.976562 250.191406 89.988281 251.765625 91.042969 C 253.34375 92.097656 254.894531 93.1875 256.417969 94.316406 C 257.9375 95.449219 259.433594 96.613281 260.898438 97.816406 C 262.367188 99.019531 263.800781 100.257812 265.207031 101.53125 C 266.613281 102.804688 267.984375 104.113281 269.324219 105.453125 C 270.667969 106.792969 271.972656 108.167969 273.246094 109.574219 C 274.519531 110.976562 275.757812 112.414062 276.960938 113.878906 C 278.164062 115.34375 279.332031 116.839844 280.460938 118.363281 C 281.589844 119.886719 282.683594 121.4375 283.734375 123.011719 C 284.789062 124.589844 285.804688 126.191406 286.777344 127.816406 C 287.753906 129.445312 288.6875 131.09375 289.582031 132.765625 C 290.476562 134.4375 291.328125 136.132812 292.140625 137.847656 C 292.949219 139.5625 293.71875 141.292969 294.445312 143.046875 C 295.167969 144.796875 295.851562 146.566406 296.492188 148.351562 C 297.128906 150.136719 297.722656 151.9375 298.273438 153.753906 C 298.824219 155.566406 299.332031 157.394531 299.792969 159.234375 C 300.253906 161.074219 300.667969 162.921875 301.039062 164.785156 C 301.40625 166.644531 301.730469 168.511719 302.011719 170.386719 C 302.289062 172.261719 302.519531 174.144531 302.707031 176.03125 C 302.890625 177.917969 303.03125 179.808594 303.125 181.703125 C 303.21875 183.597656 303.265625 185.492188 303.265625 187.390625 Z M 303.265625 187.390625 " fill-opacity="1" fill-rule="nonzero"/></g><g clip-path="url(#d02bda6da2)"><path fill="#ffffff" d="M 93.796875 134.808594 C 91.722656 134.808594 90.046875 136.488281 90.046875 138.558594 C 90.046875 140.628906 91.722656 142.308594 93.796875 142.308594 C 95.867188 142.308594 97.546875 140.628906 97.546875 138.558594 C 97.546875 136.488281 95.867188 134.808594 93.796875 134.808594 " fill-opacity="1" fill-rule="nonzero"/></g><g clip-path="url(#9baf9dc7d7)"><path fill="#ffffff" d="M 281.070312 134.808594 C 279 134.808594 277.320312 136.488281 277.320312 138.558594 C 277.320312 140.628906 279 142.308594 281.070312 142.308594 C 283.140625 142.308594 284.820312 140.628906 284.820312 138.558594 C 284.820312 136.488281 283.140625 134.808594 281.070312 134.808594 " fill-opacity="1" fill-rule="nonzero"/></g><g fill="#ffffff" fill-opacity="1"><g transform="translate(102.882527, 142.750446)"><g><path d="M -7.34375 -4.15625 L -6.09375 -7.234375 C -5.695312 -8.210938 -5.15625 -8.875 -4.46875 -9.21875 C -3.789062 -9.570312 -3.03125 -9.578125 -2.1875 -9.234375 C -1.3125 -8.878906 -0.738281 -8.332031 -0.46875 -7.59375 C -0.207031 -6.863281 -0.273438 -6.007812 -0.671875 -5.03125 L -1.390625 -3.25 L 0.9375 -2.3125 L 0.40625 -1.015625 Z M -5.640625 -4.96875 L -2.5625 -3.734375 L -1.859375 -5.484375 C -1.359375 -6.722656 -1.628906 -7.550781 -2.671875 -7.96875 C -3.679688 -8.375 -4.4375 -7.957031 -4.9375 -6.71875 Z M -5.640625 -4.96875 "/></g></g></g><g fill="#ffffff" fill-opacity="1"><g transform="translate(106.41725, 134.150772)"><g><path d="M 3.046875 -5.640625 L 0.078125 -5.5 C 0.046875 -5.414062 -0.0078125 -5.300781 -0.09375 -5.15625 L -1.03125 -3.40625 L 1.1875 -2.203125 L 0.515625 -0.96875 L -6.84375 -4.9375 L -5.234375 -7.921875 C -4.722656 -8.859375 -4.101562 -9.46875 -3.375 -9.75 C -2.65625 -10.039062 -1.898438 -9.96875 -1.109375 -9.53125 C -0.515625 -9.21875 -0.0859375 -8.816406 0.171875 -8.328125 C 0.429688 -7.847656 0.523438 -7.3125 0.453125 -6.71875 L 3.796875 -7.03125 Z M -2.140625 -4 L -1.203125 -5.75 C -0.554688 -6.9375 -0.726562 -7.796875 -1.71875 -8.328125 C -2.664062 -8.847656 -3.460938 -8.515625 -4.109375 -7.328125 L -5.046875 -5.578125 Z M -2.140625 -4 "/></g></g></g><g fill="#ffffff" fill-opacity="1"><g transform="translate(111.202304, 125.489213)"><g><path d="M -1.8125 -9.84375 L -4.40625 -6.09375 L -2.546875 -4.8125 L -0.21875 -8.171875 L 0.8125 -7.453125 L -1.515625 -4.09375 L 0.375 -2.78125 L 3.046875 -6.640625 L 4.09375 -5.921875 L 0.625 -0.90625 L -6.25 -5.65625 L -2.859375 -10.5625 Z M -1.8125 -9.84375 "/></g></g></g><g fill="#ffffff" fill-opacity="1"><g transform="translate(116.326114, 118.035584)"><g><path d="M 6.609375 -7.421875 L 5.734375 -6.4375 L 1.0625 -10.59375 L 3.328125 -5.046875 L 2.71875 -4.359375 L -3.0625 -5.96875 L 1.609375 -1.8125 L 0.734375 -0.8125 L -5.5 -6.375 L -4.390625 -7.625 L 1.59375 -6 L -0.734375 -11.734375 L 0.375 -12.984375 Z M 6.609375 -7.421875 "/></g></g></g><g fill="#ffffff" fill-opacity="1"><g transform="translate(124.72635, 108.984857)"><g><path d="M 1.84375 -1.6875 L 0.8125 -0.734375 L -4.84375 -6.890625 L -3.8125 -7.84375 Z M 1.84375 -1.6875 "/></g></g></g><g fill="#ffffff" fill-opacity="1"><g transform="translate(128.34902, 105.575491)"><g><path d="M 1.4375 -11.625 L 4.40625 -7.734375 C 5.070312 -6.867188 5.335938 -5.988281 5.203125 -5.09375 C 5.066406 -4.207031 4.550781 -3.421875 3.65625 -2.734375 C 2.757812 -2.046875 1.863281 -1.753906 0.96875 -1.859375 C 0.0820312 -1.960938 -0.691406 -2.445312 -1.359375 -3.3125 L -4.328125 -7.203125 L -3.21875 -8.0625 L -0.25 -4.171875 C 0.175781 -3.609375 0.671875 -3.289062 1.234375 -3.21875 C 1.796875 -3.144531 2.351562 -3.316406 2.90625 -3.734375 C 3.445312 -4.148438 3.75 -4.632812 3.8125 -5.1875 C 3.882812 -5.75 3.707031 -6.3125 3.28125 -6.875 L 0.3125 -10.765625 Z M 1.4375 -11.625 "/></g></g></g><g fill="#ffffff" fill-opacity="1"><g transform="translate(136.534748, 99.32568)"><g><path d="M 8.609375 -4.96875 L 7.46875 -4.3125 L 4.34375 -9.71875 L 4.75 -3.75 L 3.953125 -3.296875 L -1.03125 -6.609375 L 2.09375 -1.203125 L 0.953125 -0.546875 L -3.21875 -7.78125 L -1.78125 -8.609375 L 3.390625 -5.203125 L 2.984375 -11.359375 L 4.4375 -12.203125 Z M 8.609375 -4.96875 "/></g></g></g><g fill="#ffffff" fill-opacity="1"><g transform="translate(147.365657, 93.369031)"><g/></g></g><g fill="#ffffff" fill-opacity="1"><g transform="translate(151.426578, 91.470987)"><g><path d="M 1.6875 -9.515625 C 2.25 -9.710938 2.828125 -9.800781 3.421875 -9.78125 C 4.015625 -9.757812 4.570312 -9.625 5.09375 -9.375 L 4.6875 -8.140625 C 4.289062 -8.335938 3.863281 -8.457031 3.40625 -8.5 C 2.957031 -8.539062 2.535156 -8.488281 2.140625 -8.34375 C 1.347656 -8.0625 0.773438 -7.554688 0.421875 -6.828125 C 0.078125 -6.109375 0.0390625 -5.359375 0.3125 -4.578125 C 0.59375 -3.796875 1.097656 -3.234375 1.828125 -2.890625 C 2.566406 -2.546875 3.332031 -2.515625 4.125 -2.796875 C 4.9375 -3.085938 5.550781 -3.671875 5.96875 -4.546875 L 7.078125 -3.9375 C 6.804688 -3.394531 6.441406 -2.910156 5.984375 -2.484375 C 5.535156 -2.054688 5.035156 -1.742188 4.484375 -1.546875 C 3.328125 -1.128906 2.21875 -1.164062 1.15625 -1.65625 C 0.09375 -2.144531 -0.632812 -2.953125 -1.03125 -4.078125 C -1.4375 -5.203125 -1.375 -6.285156 -0.84375 -7.328125 C -0.3125 -8.367188 0.53125 -9.097656 1.6875 -9.515625 Z M 1.6875 -9.515625 "/></g></g></g><g fill="#ffffff" fill-opacity="1"><g transform="translate(160.428363, 88.275843)"><g><path d="M 0.015625 -7.359375 C 0.671875 -8.335938 1.609375 -8.96875 2.828125 -9.25 C 4.046875 -9.53125 5.160156 -9.375 6.171875 -8.78125 C 7.179688 -8.1875 7.820312 -7.304688 8.09375 -6.140625 C 8.363281 -4.984375 8.171875 -3.910156 7.515625 -2.921875 C 6.867188 -1.929688 5.9375 -1.296875 4.71875 -1.015625 C 3.5 -0.734375 2.382812 -0.894531 1.375 -1.5 C 0.363281 -2.113281 -0.273438 -3 -0.546875 -4.15625 C -0.816406 -5.320312 -0.628906 -6.390625 0.015625 -7.359375 Z M 3.125 -8.03125 C 2.320312 -7.84375 1.695312 -7.40625 1.25 -6.71875 C 0.800781 -6.03125 0.671875 -5.28125 0.859375 -4.46875 C 1.046875 -3.664062 1.488281 -3.050781 2.1875 -2.625 C 2.894531 -2.195312 3.648438 -2.070312 4.453125 -2.25 C 5.253906 -2.4375 5.867188 -2.875 6.296875 -3.5625 C 6.734375 -4.257812 6.859375 -5.007812 6.671875 -5.8125 C 6.484375 -6.625 6.046875 -7.238281 5.359375 -7.65625 C 4.671875 -8.082031 3.925781 -8.207031 3.125 -8.03125 Z M 3.125 -8.03125 "/></g></g></g><g fill="#ffffff" fill-opacity="1"><g transform="translate(171.03883, 85.917511)"><g><path d="M 8.296875 -0.84375 L 6.921875 -0.703125 L 1.875 -6.21875 L 2.484375 -0.25 L 1.09375 -0.109375 L 0.25 -8.421875 L 1.625 -8.5625 L 6.6875 -3.046875 L 6.078125 -9.015625 L 7.453125 -9.15625 Z M 8.296875 -0.84375 "/></g></g></g><g fill="#ffffff" fill-opacity="1"><g transform="translate(181.717071, 84.965471)"><g><path d="M 6.84375 -7.046875 L 4.203125 -7.0625 L 4.15625 0.03125 L 2.75 0.015625 L 2.796875 -7.078125 L 0.15625 -7.09375 L 0.171875 -8.359375 L 6.859375 -8.3125 Z M 6.84375 -7.046875 "/></g></g></g><g fill="#ffffff" fill-opacity="1"><g transform="translate(189.940749, 85.069188)"><g><path d="M 7.78125 -6.28125 L 3.25 -6.78125 L 3 -4.53125 L 7.078125 -4.09375 L 6.953125 -2.84375 L 2.875 -3.28125 L 2.625 -1 L 7.296875 -0.484375 L 7.15625 0.78125 L 1.09375 0.125 L 2 -8.1875 L 7.921875 -7.546875 Z M 7.78125 -6.28125 "/></g></g></g><g fill="#ffffff" fill-opacity="1"><g transform="translate(198.965787, 86.071193)"><g><path d="M 8.140625 1.84375 L 6.78125 1.53125 L 3.765625 -5.3125 L 2.4375 0.546875 L 1.0625 0.234375 L 2.90625 -7.921875 L 4.265625 -7.609375 L 7.296875 -0.765625 L 8.625 -6.625 L 9.984375 -6.3125 Z M 8.140625 1.84375 "/></g></g></g><g fill="#ffffff" fill-opacity="1"><g transform="translate(209.391513, 88.568312)"><g><path d="M 8.734375 -4.484375 L 6.25 -5.34375 L 3.9375 1.359375 L 2.59375 0.890625 L 4.90625 -5.8125 L 2.421875 -6.671875 L 2.828125 -7.875 L 9.140625 -5.6875 Z M 8.734375 -4.484375 "/></g></g></g><g fill="#ffffff" fill-opacity="1"><g transform="translate(217.238796, 91.401725)"><g/></g></g><g fill="#ffffff" fill-opacity="1"><g transform="translate(221.397413, 93.168126)"><g><path d="M 9.234375 -3.203125 L 5.5 -5.140625 L 4.375 -2.984375 L 7.734375 -1.234375 L 7.15625 -0.125 L 3.796875 -1.875 L 2.21875 1.15625 L 0.96875 0.5 L 4.828125 -6.921875 L 9.8125 -4.328125 Z M 9.234375 -3.203125 "/></g></g></g><g fill="#ffffff" fill-opacity="1"><g transform="translate(228.616083, 96.918344)"><g><path d="M 5.390625 -5.03125 C 6.546875 -5.226562 7.640625 -4.976562 8.671875 -4.28125 C 9.710938 -3.582031 10.363281 -2.660156 10.625 -1.515625 C 10.894531 -0.367188 10.695312 0.695312 10.03125 1.6875 C 9.363281 2.675781 8.445312 3.269531 7.28125 3.46875 C 6.113281 3.675781 5.007812 3.429688 3.96875 2.734375 C 2.9375 2.035156 2.296875 1.113281 2.046875 -0.03125 C 1.796875 -1.1875 2.003906 -2.257812 2.671875 -3.25 C 3.335938 -4.238281 4.242188 -4.832031 5.390625 -5.03125 Z M 8 -3.234375 C 7.3125 -3.679688 6.5625 -3.832031 5.75 -3.6875 C 4.945312 -3.539062 4.316406 -3.125 3.859375 -2.4375 C 3.398438 -1.75 3.253906 -1 3.421875 -0.1875 C 3.585938 0.613281 4.007812 1.238281 4.6875 1.6875 C 5.375 2.144531 6.117188 2.296875 6.921875 2.140625 C 7.722656 1.984375 8.351562 1.5625 8.8125 0.875 C 9.269531 0.1875 9.414062 -0.550781 9.25 -1.34375 C 9.09375 -2.144531 8.675781 -2.773438 8 -3.234375 Z M 8 -3.234375 "/></g></g></g><g fill="#ffffff" fill-opacity="1"><g transform="translate(237.604756, 103.06364)"><g><path d="M 4.859375 4.171875 L 5.359375 1.25 C 5.285156 1.207031 5.179688 1.128906 5.046875 1.015625 L 3.53125 -0.28125 L 1.890625 1.625 L 0.828125 0.71875 L 6.28125 -5.625 L 8.859375 -3.421875 C 9.671875 -2.722656 10.132812 -1.988281 10.25 -1.21875 C 10.363281 -0.457031 10.125 0.265625 9.53125 0.953125 C 9.101562 1.460938 8.625 1.789062 8.09375 1.9375 C 7.5625 2.09375 7.019531 2.070312 6.46875 1.875 L 6.0625 5.21875 Z M 4.359375 -1.25 L 5.875 0.046875 C 6.894531 0.929688 7.769531 0.953125 8.5 0.109375 C 9.207031 -0.710938 9.050781 -1.566406 8.03125 -2.453125 L 6.515625 -3.75 Z M 4.359375 -1.25 "/></g></g></g><g fill="#ffffff" fill-opacity="1"><g transform="translate(245.084739, 109.724102)"><g/></g></g><g fill="#ffffff" fill-opacity="1"><g transform="translate(248.266393, 112.930851)"><g><path d="M 9.734375 0.53125 L 7.015625 -2.671875 L 5.171875 -1.109375 L 7.640625 1.78125 L 6.6875 2.578125 L 4.21875 -0.3125 L 1.609375 1.90625 L 0.703125 0.828125 L 7.078125 -4.578125 L 10.703125 -0.296875 Z M 9.734375 0.53125 "/></g></g></g><g fill="#ffffff" fill-opacity="1"><g transform="translate(253.523436, 119.171224)"><g><path d="M 3.609375 5.296875 L 4.84375 2.609375 C 4.78125 2.535156 4.703125 2.425781 4.609375 2.28125 L 3.484375 0.640625 L 1.40625 2.0625 L 0.609375 0.90625 L 7.515625 -3.796875 L 9.4375 -1 C 10.039062 -0.113281 10.300781 0.710938 10.21875 1.484375 C 10.132812 2.253906 9.71875 2.894531 8.96875 3.40625 C 8.414062 3.78125 7.863281 3.972656 7.3125 3.984375 C 6.757812 3.992188 6.242188 3.828125 5.765625 3.484375 L 4.5 6.609375 Z M 4.53125 -0.0625 L 5.65625 1.578125 C 6.414062 2.703125 7.257812 2.945312 8.1875 2.3125 C 9.082031 1.695312 9.148438 0.828125 8.390625 -0.296875 L 7.265625 -1.9375 Z M 4.53125 -0.0625 "/></g></g></g><g fill="#ffffff" fill-opacity="1"><g transform="translate(259.024694, 127.396818)"><g><path d="M 9.578125 2.90625 L 7.4375 -1.125 L 5.4375 -0.0625 L 7.359375 3.5625 L 6.234375 4.15625 L 4.3125 0.53125 L 2.296875 1.609375 L 4.5 5.765625 L 3.375 6.359375 L 0.515625 0.96875 L 7.890625 -2.953125 L 10.6875 2.3125 Z M 9.578125 2.90625 "/></g></g></g><g fill="#ffffff" fill-opacity="1"><g transform="translate(263.24532, 135.480055)"><g><path d="M 9.21875 3.890625 L 7.515625 -0.34375 L 5.421875 0.5 L 6.953125 4.296875 L 5.765625 4.78125 L 4.234375 0.984375 L 2.109375 1.84375 L 3.859375 6.21875 L 2.6875 6.6875 L 0.40625 1.015625 L 8.15625 -2.109375 L 10.390625 3.421875 Z M 9.21875 3.890625 "/></g></g></g><g fill="#191817" fill-opacity="1"><g transform="translate(153.764708, 263.581843)"><g><path d="M 7.75 -10.609375 L 7.75 -5.828125 L 20.140625 -5.828125 L 20.140625 0 L 1.25 0 L 1.25 -27.0625 L 20.140625 -27.0625 L 20.140625 -21.234375 L 7.75 -21.234375 L 7.75 -16.4375 L 18.265625 -16.4375 L 18.265625 -10.609375 Z M 7.75 -10.609375 "/></g></g></g><g fill="#191817" fill-opacity="1"><g transform="translate(175.159974, 263.581843)"><g><path d="M 12.28125 0.046875 C 10.445312 0.046875 8.835938 -0.21875 7.453125 -0.75 C 6.335938 -1.195312 5.195312 -1.929688 4.03125 -2.953125 C 2.707031 -4.171875 1.863281 -5.6875 1.5 -7.5 C 1.363281 -8.070312 1.296875 -8.648438 1.296875 -9.234375 C 1.265625 -9.429688 1.265625 -9.628906 1.296875 -9.828125 L 1.296875 -10.109375 L 7 -10.03125 L 7 -10.078125 C 7 -9.046875 7.21875 -8.195312 7.65625 -7.53125 C 8.488281 -6.28125 10.03125 -5.65625 12.28125 -5.65625 C 15.882812 -5.65625 17.6875 -6.503906 17.6875 -8.203125 C 17.6875 -9.835938 15.828125 -10.863281 12.109375 -11.28125 C 9.972656 -11.53125 8.144531 -11.972656 6.625 -12.609375 C 5.207031 -13.191406 4.050781 -13.96875 3.15625 -14.9375 C 1.914062 -16.332031 1.296875 -17.941406 1.296875 -19.765625 C 1.296875 -20.910156 1.503906 -21.984375 1.921875 -22.984375 C 2.222656 -23.722656 2.632812 -24.398438 3.15625 -25.015625 C 5.101562 -27.210938 8.1875 -28.3125 12.40625 -28.3125 C 14.925781 -28.3125 17.0625 -27.8125 18.8125 -26.8125 C 20.144531 -26.0625 21.226562 -25.0625 22.0625 -23.8125 C 22.675781 -22.863281 23.109375 -21.78125 23.359375 -20.5625 C 23.429688 -20.144531 23.484375 -19.726562 23.515625 -19.3125 C 23.546875 -19.175781 23.5625 -19.035156 23.5625 -18.890625 L 23.5625 -18.640625 L 17.859375 -18.640625 L 17.859375 -18.609375 C 17.890625 -19.441406 17.679688 -20.148438 17.234375 -20.734375 C 16.347656 -21.984375 14.738281 -22.609375 12.40625 -22.609375 C 10.988281 -22.609375 9.820312 -22.425781 8.90625 -22.0625 C 7.769531 -21.613281 7.203125 -20.972656 7.203125 -20.140625 C 7.203125 -18.421875 9.046875 -17.351562 12.734375 -16.9375 C 16.898438 -16.46875 19.898438 -15.175781 21.734375 -13.0625 C 22.953125 -11.625 23.5625 -10.003906 23.5625 -8.203125 L 23.5625 -7.828125 C 23.5625 -7.660156 23.546875 -7.492188 23.515625 -7.328125 C 23.484375 -6.878906 23.429688 -6.460938 23.359375 -6.078125 C 23.078125 -4.960938 22.546875 -3.976562 21.765625 -3.125 C 20.847656 -2.09375 19.613281 -1.300781 18.0625 -0.75 C 16.507812 -0.21875 14.582031 0.046875 12.28125 0.046875 Z M 12.28125 0.046875 "/></g></g></g><g fill="#191817" fill-opacity="1"><g transform="translate(199.968486, 263.581843)"><g><path d="M 7.75 -5.828125 L 20.765625 -5.828125 L 20.765625 0 L 1.25 0 L 1.25 -27.0625 L 7.75 -27.0625 Z M 7.75 -5.828125 "/></g></g></g><g fill="#191817" fill-opacity="1"><g transform="translate(151.467833, 292.038994)"><g><path d="M 17.640625 -2.484375 C 15.722656 -0.890625 13.53125 -0.09375 11.0625 -0.09375 C 8.257812 -0.09375 5.867188 -1.082031 3.890625 -3.0625 C 1.898438 -5.050781 0.90625 -7.441406 0.90625 -10.234375 C 0.90625 -13.046875 1.898438 -15.445312 3.890625 -17.4375 C 5.867188 -19.414062 8.257812 -20.40625 11.0625 -20.40625 C 13.550781 -20.40625 15.742188 -19.597656 17.640625 -17.984375 L 14.609375 -14.96875 C 13.578125 -15.757812 12.394531 -16.15625 11.0625 -16.15625 C 9.4375 -16.15625 8.046875 -15.578125 6.890625 -14.421875 C 5.734375 -13.273438 5.15625 -11.878906 5.15625 -10.234375 C 5.15625 -8.617188 5.734375 -7.234375 6.890625 -6.078125 C 8.046875 -4.921875 9.4375 -4.34375 11.0625 -4.34375 C 12.394531 -4.34375 13.578125 -4.738281 14.609375 -5.53125 Z M 17.640625 -2.484375 "/></g></g></g><g fill="#191817" fill-opacity="1"><g transform="translate(170.938169, 292.038994)"><g><path d="M 5.65625 -4.25 L 15.15625 -4.25 L 15.15625 0 L 0.90625 0 L 0.90625 -19.75 L 5.65625 -19.75 Z M 5.65625 -4.25 "/></g></g></g><g fill="#191817" fill-opacity="1"><g transform="translate(186.459766, 292.038994)"><g><path d="M 13.390625 -19.75 L 17.796875 -19.75 L 17.796875 -8.359375 C 17.796875 -5.878906 16.863281 -3.820312 15 -2.1875 C 13.320312 -0.726562 11.429688 0 9.328125 0 C 7.296875 0 5.453125 -0.707031 3.796875 -2.125 C 1.867188 -3.75 0.90625 -5.84375 0.90625 -8.40625 L 0.90625 -19.75 L 5.3125 -19.75 L 5.3125 -8.40625 C 5.3125 -7.195312 5.75 -6.226562 6.625 -5.5 C 7.03125 -5.132812 7.503906 -4.859375 8.046875 -4.671875 C 8.515625 -4.492188 8.941406 -4.40625 9.328125 -4.40625 C 9.691406 -4.40625 10.144531 -4.492188 10.6875 -4.671875 C 11.300781 -4.921875 11.78125 -5.207031 12.125 -5.53125 C 12.5625 -5.9375 12.875 -6.34375 13.0625 -6.75 C 13.28125 -7.1875 13.390625 -7.722656 13.390625 -8.359375 Z M 13.390625 -19.75 "/></g></g></g><g fill="#191817" fill-opacity="1"><g transform="translate(205.170729, 292.038994)"><g><path d="M 10.390625 -19.75 C 12.640625 -19.75 14.421875 -19.007812 15.734375 -17.53125 C 16.867188 -16.226562 17.4375 -14.71875 17.4375 -13 C 17.4375 -11.320312 16.910156 -9.851562 15.859375 -8.59375 C 14.535156 -7.050781 12.691406 -6.28125 10.328125 -6.28125 L 5.65625 -6.28125 L 5.65625 0 L 0.90625 0 L 0.90625 -19.75 Z M 12.609375 -11.328125 C 12.804688 -11.566406 12.957031 -11.851562 13.0625 -12.1875 C 13.144531 -12.46875 13.1875 -12.738281 13.1875 -13 C 13.1875 -13.257812 13.132812 -13.539062 13.03125 -13.84375 C 12.90625 -14.175781 12.742188 -14.460938 12.546875 -14.703125 C 12.078125 -15.222656 11.359375 -15.484375 10.390625 -15.484375 L 5.65625 -15.484375 L 5.65625 -10.546875 L 10.328125 -10.546875 C 10.953125 -10.546875 11.476562 -10.632812 11.90625 -10.8125 C 12.1875 -10.976562 12.421875 -11.148438 12.609375 -11.328125 Z M 12.609375 -11.328125 "/></g></g></g><g fill="#ffffff" fill-opacity="1"><g transform="translate(84.066997, 192.565816)"><g><path d="M 7.640625 -6.9375 L 3.0625 -6.9375 L 3.0625 -5.203125 L 7.203125 -5.203125 L 7.203125 -3.484375 L 3.0625 -3.484375 L 3.0625 -1.734375 L 7.78125 -1.734375 L 7.78125 0 L 0.859375 0 L 0.859375 -8.65625 L 7.640625 -8.65625 Z M 7.640625 -6.9375 "/></g></g></g><g fill="#ffffff" fill-opacity="1"><g transform="translate(93.020663, 192.565816)"><g><path d="M 4.1875 -8.765625 C 5.488281 -8.765625 6.628906 -8.441406 7.609375 -7.796875 L 6.78125 -6.078125 C 6.320312 -6.335938 5.832031 -6.550781 5.3125 -6.71875 C 4.800781 -6.894531 4.367188 -6.984375 4.015625 -6.984375 C 3.378906 -6.984375 3.0625 -6.769531 3.0625 -6.34375 C 3.0625 -6.070312 3.21875 -5.851562 3.53125 -5.6875 C 3.84375 -5.519531 4.222656 -5.378906 4.671875 -5.265625 C 5.117188 -5.148438 5.566406 -5.003906 6.015625 -4.828125 C 6.460938 -4.660156 6.84375 -4.382812 7.15625 -4 C 7.476562 -3.625 7.640625 -3.148438 7.640625 -2.578125 C 7.640625 -1.742188 7.3125 -1.09375 6.65625 -0.625 C 6.007812 -0.15625 5.179688 0.078125 4.171875 0.078125 C 3.453125 0.078125 2.738281 -0.046875 2.03125 -0.296875 C 1.332031 -0.546875 0.722656 -0.882812 0.203125 -1.3125 L 1.0625 -3 C 1.5 -2.625 2.015625 -2.3125 2.609375 -2.0625 C 3.203125 -1.820312 3.726562 -1.703125 4.1875 -1.703125 C 4.550781 -1.703125 4.832031 -1.765625 5.03125 -1.890625 C 5.226562 -2.023438 5.328125 -2.21875 5.328125 -2.46875 C 5.328125 -2.707031 5.210938 -2.90625 4.984375 -3.0625 C 4.753906 -3.21875 4.46875 -3.335938 4.125 -3.421875 C 3.789062 -3.503906 3.425781 -3.609375 3.03125 -3.734375 C 2.632812 -3.867188 2.265625 -4.015625 1.921875 -4.171875 C 1.585938 -4.328125 1.304688 -4.578125 1.078125 -4.921875 C 0.859375 -5.265625 0.75 -5.675781 0.75 -6.15625 C 0.75 -6.945312 1.0625 -7.578125 1.6875 -8.046875 C 2.320312 -8.523438 3.15625 -8.765625 4.1875 -8.765625 Z M 4.1875 -8.765625 "/></g></g></g><g fill="#ffffff" fill-opacity="1"><g transform="translate(101.603332, 192.565816)"><g><path d="M 7.484375 -6.890625 L 4.875 -6.890625 L 4.875 0 L 2.671875 0 L 2.671875 -6.890625 L 0.09375 -6.890625 L 0.09375 -8.671875 L 7.484375 -8.671875 Z M 7.484375 -6.890625 "/></g></g></g><g fill="#ffffff" fill-opacity="1"><g transform="translate(109.777912, 192.565816)"><g><path d="M 0.859375 -8.65625 L 4.59375 -8.65625 C 5.957031 -8.65625 7.0625 -8.253906 7.90625 -7.453125 C 8.757812 -6.660156 9.1875 -5.617188 9.1875 -4.328125 C 9.1875 -3.046875 8.753906 -2.003906 7.890625 -1.203125 C 7.023438 -0.398438 5.894531 0 4.5 0 L 0.859375 0 Z M 3.0625 -6.90625 L 3.0625 -1.75 L 4.640625 -1.75 C 5.316406 -1.75 5.867188 -1.988281 6.296875 -2.46875 C 6.734375 -2.945312 6.953125 -3.5625 6.953125 -4.3125 C 6.953125 -5.070312 6.722656 -5.691406 6.265625 -6.171875 C 5.816406 -6.660156 5.242188 -6.90625 4.546875 -6.90625 Z M 3.0625 -6.90625 "/></g></g></g><g fill="#ffffff" fill-opacity="1"><g transform="translate(256.563781, 192.565816)"><g><path d="M 3.78125 -8.765625 C 4.65625 -8.765625 5.367188 -8.554688 5.921875 -8.140625 C 6.472656 -7.722656 6.75 -7.175781 6.75 -6.5 C 6.75 -5.6875 6.203125 -4.722656 5.109375 -3.609375 L 3.359375 -1.75 L 7 -1.75 L 7 0 L 0.515625 0 L 0.515625 -1.421875 L 3.609375 -4.703125 C 4.160156 -5.273438 4.4375 -5.769531 4.4375 -6.1875 C 4.4375 -6.4375 4.347656 -6.628906 4.171875 -6.765625 C 4.003906 -6.910156 3.769531 -6.984375 3.46875 -6.984375 C 2.75 -6.984375 1.957031 -6.613281 1.09375 -5.875 L 0.265625 -7.46875 C 1.421875 -8.332031 2.59375 -8.765625 3.78125 -8.765625 Z M 3.78125 -8.765625 "/></g></g></g><g fill="#ffffff" fill-opacity="1"><g transform="translate(264.602328, 192.565816)"><g><path d="M 4.359375 -8.734375 C 5.585938 -8.734375 6.53125 -8.351562 7.1875 -7.59375 C 7.851562 -6.832031 8.1875 -5.75 8.1875 -4.34375 C 8.1875 -2.925781 7.851562 -1.835938 7.1875 -1.078125 C 6.53125 -0.316406 5.585938 0.0625 4.359375 0.0625 C 3.117188 0.0625 2.164062 -0.316406 1.5 -1.078125 C 0.832031 -1.835938 0.5 -2.925781 0.5 -4.34375 C 0.5 -5.75 0.832031 -6.832031 1.5 -7.59375 C 2.164062 -8.351562 3.117188 -8.734375 4.359375 -8.734375 Z M 4.359375 -7.125 C 3.796875 -7.125 3.390625 -6.90625 3.140625 -6.46875 C 2.890625 -6.039062 2.765625 -5.332031 2.765625 -4.34375 C 2.765625 -3.351562 2.890625 -2.640625 3.140625 -2.203125 C 3.390625 -1.765625 3.796875 -1.546875 4.359375 -1.546875 C 4.898438 -1.546875 5.296875 -1.765625 5.546875 -2.203125 C 5.796875 -2.648438 5.921875 -3.363281 5.921875 -4.34375 C 5.921875 -5.320312 5.796875 -6.03125 5.546875 -6.46875 C 5.296875 -6.90625 4.898438 -7.125 4.359375 -7.125 Z M 4.359375 -7.125 "/></g></g></g><g fill="#ffffff" fill-opacity="1"><g transform="translate(273.914605, 192.565816)"><g><path d="M 3.890625 0 L 1.6875 0 L 1.6875 -6.90625 L 0.09375 -6.90625 L 0.09375 -8.671875 L 3.890625 -8.671875 Z M 3.890625 0 "/></g></g></g><g fill="#ffffff" fill-opacity="1"><g transform="translate(279.628281, 192.565816)"><g><path d="M 3.953125 -8.765625 C 4.910156 -8.765625 5.664062 -8.550781 6.21875 -8.125 C 6.78125 -7.707031 7.0625 -7.144531 7.0625 -6.4375 C 7.0625 -6.050781 6.960938 -5.703125 6.765625 -5.390625 C 6.578125 -5.078125 6.316406 -4.828125 5.984375 -4.640625 C 6.453125 -4.441406 6.828125 -4.144531 7.109375 -3.75 C 7.390625 -3.363281 7.53125 -2.929688 7.53125 -2.453125 C 7.53125 -1.671875 7.207031 -1.050781 6.5625 -0.59375 C 5.914062 -0.132812 5.050781 0.09375 3.96875 0.09375 C 2.882812 0.09375 2.019531 -0.128906 1.375 -0.578125 C 0.738281 -1.035156 0.421875 -1.644531 0.421875 -2.40625 C 0.421875 -2.90625 0.566406 -3.351562 0.859375 -3.75 C 1.160156 -4.144531 1.5625 -4.441406 2.0625 -4.640625 C 1.695312 -4.847656 1.40625 -5.113281 1.1875 -5.4375 C 0.96875 -5.769531 0.859375 -6.125 0.859375 -6.5 C 0.859375 -7.1875 1.140625 -7.734375 1.703125 -8.140625 C 2.265625 -8.554688 3.015625 -8.765625 3.953125 -8.765625 Z M 4.890625 -7.046875 C 4.679688 -7.222656 4.375 -7.3125 3.96875 -7.3125 C 3.5625 -7.3125 3.25 -7.222656 3.03125 -7.046875 C 2.820312 -6.878906 2.71875 -6.632812 2.71875 -6.3125 C 2.71875 -6 2.820312 -5.757812 3.03125 -5.59375 C 3.25 -5.425781 3.5625 -5.34375 3.96875 -5.34375 C 4.375 -5.34375 4.679688 -5.425781 4.890625 -5.59375 C 5.109375 -5.757812 5.21875 -6 5.21875 -6.3125 C 5.21875 -6.632812 5.109375 -6.878906 4.890625 -7.046875 Z M 5.0625 -3.46875 C 4.8125 -3.664062 4.445312 -3.765625 3.96875 -3.765625 C 3.488281 -3.765625 3.125 -3.664062 2.875 -3.46875 C 2.625 -3.28125 2.5 -3.003906 2.5 -2.640625 C 2.5 -2.273438 2.625 -1.992188 2.875 -1.796875 C 3.125 -1.597656 3.488281 -1.5 3.96875 -1.5 C 4.445312 -1.5 4.8125 -1.59375 5.0625 -1.78125 C 5.320312 -1.976562 5.453125 -2.265625 5.453125 -2.640625 C 5.453125 -3.003906 5.320312 -3.28125 5.0625 -3.46875 Z M 5.0625 -3.46875 "/></g></g></g><path stroke-linecap="round" transform="matrix(0.756022, 0, 0, 0.75, 254.092781, 196.801041)" fill="none" stroke-linejoin="miter" d="M 0.998483 0.999654 L 49.597832 0.999654 " stroke="#ffffff" stroke-width="2" stroke-opacity="1" stroke-miterlimit="4"/><path stroke-linecap="round" transform="matrix(0.756022, 0, 0, 0.75, 254.092781, 177.86574)" fill="none" stroke-linejoin="miter" d="M 0.998483 1.00193 L 49.597832 1.00193 " stroke="#ffffff" stroke-width="2" stroke-opacity="1" stroke-miterlimit="4"/><path stroke-linecap="round" transform="matrix(0.756022, 0, 0, 0.75, 82.696617, 196.801041)" fill="none" stroke-linejoin="miter" d="M 1.000643 0.999654 L 49.599992 0.999654 " stroke="#ffffff" stroke-width="2" stroke-opacity="1" stroke-miterlimit="4"/><path stroke-linecap="round" transform="matrix(0.756022, 0, 0, 0.75, 82.696617, 177.86574)" fill="none" stroke-linejoin="miter" d="M 1.000643 1.00193 L 49.599992 1.00193 " stroke="#ffffff" stroke-width="2" stroke-opacity="1" stroke-miterlimit="4"/><path stroke-linecap="round" transform="matrix(0.766884, 0, 0, 0.75, 97.555707, 245.441381)" fill="none" stroke-linejoin="miter" d="M 4.002289 4.000033 L 17.515773 4.000033 " stroke="#191817" stroke-width="8" stroke-opacity="1" stroke-miterlimit="4"/><path stroke-linecap="round" transform="matrix(0.766884, 0, 0, 0.75, 261.305699, 245.441381)" fill="none" stroke-linejoin="miter" d="M 4.002299 4.000033 L 17.515783 4.000033 " stroke="#191817" stroke-width="8" stroke-opacity="1" stroke-miterlimit="4"/><path fill="#ea392c" d="M 231.386719 142.832031 C 213.605469 141.136719 195.027344 139.429688 191.984375 150.226562 C 190.898438 150.121094 189.386719 150.109375 187.324219 150.125 C 184.179688 141.175781 174 140.324219 148.140625 142.726562 C 145.992188 142.925781 146.695312 145.59375 148.140625 145.460938 C 148.382812 145.460938 149.632812 145.332031 151.527344 145.160156 C 149.195312 162.890625 163.039062 174.628906 175.601562 171.089844 C 184.742188 168.515625 188.910156 159.953125 187.976562 152.875 C 189.402344 152.898438 190.554688 152.976562 191.476562 153.023438 C 190.027344 167.15625 205.929688 177.121094 218.246094 168.757812 C 226.289062 163.300781 229.253906 154.699219 228 145.257812 C 229.085938 145.351562 230.210938 145.449219 231.378906 145.5625 C 232.957031 145.710938 233.40625 143.023438 231.386719 142.832031 Z M 178.507812 166.914062 C 170.15625 171.839844 160.914062 167.636719 156.398438 159.535156 C 152.960938 153.34375 154.078125 147.960938 154.339844 144.921875 C 161.878906 144.328125 174.238281 143.710938 179.792969 145.867188 C 188.664062 149.3125 186.199219 162.378906 178.507812 166.914062 Z M 199.492188 165.957031 C 193.003906 160.609375 191.484375 149.382812 199.5625 145.953125 C 199.269531 146.078125 202.359375 143.328125 225.21875 145.035156 C 228.25 164.371094 210.023438 174.632812 199.496094 165.957031 Z M 199.492188 165.957031 " fill-opacity="1" fill-rule="nonzero"/><path fill="#ea392c" d="M 171.644531 148.613281 C 170.925781 148.613281 170.21875 148.71875 169.53125 148.925781 C 169.726562 149.082031 169.902344 149.253906 170.0625 149.445312 C 170.222656 149.636719 170.363281 149.84375 170.480469 150.0625 C 170.597656 150.28125 170.691406 150.511719 170.761719 150.75 C 170.832031 150.988281 170.878906 151.230469 170.902344 151.476562 C 170.921875 151.726562 170.917969 151.972656 170.890625 152.21875 C 170.859375 152.46875 170.804688 152.710938 170.726562 152.945312 C 170.648438 153.179688 170.546875 153.40625 170.421875 153.621094 C 170.300781 153.835938 170.152344 154.039062 169.988281 154.222656 C 169.824219 154.410156 169.640625 154.578125 169.441406 154.726562 C 169.242188 154.875 169.027344 155.003906 168.800781 155.105469 C 168.578125 155.210938 168.34375 155.292969 168.101562 155.351562 C 167.859375 155.410156 167.613281 155.441406 167.363281 155.449219 C 167.113281 155.457031 166.867188 155.441406 166.621094 155.398438 C 166.375 155.355469 166.136719 155.289062 165.90625 155.195312 C 165.675781 155.105469 165.453125 154.992188 165.246094 154.855469 C 165.035156 154.71875 164.84375 154.5625 164.667969 154.390625 C 164.582031 154.816406 164.539062 155.246094 164.539062 155.679688 C 164.539062 156.144531 164.582031 156.605469 164.671875 157.0625 C 164.765625 157.519531 164.898438 157.960938 165.074219 158.390625 C 165.253906 158.820312 165.472656 159.230469 165.730469 159.617188 C 165.988281 160.003906 166.28125 160.363281 166.609375 160.691406 C 166.9375 161.023438 167.296875 161.316406 167.683594 161.574219 C 168.070312 161.832031 168.480469 162.050781 168.910156 162.230469 C 169.339844 162.410156 169.78125 162.542969 170.238281 162.636719 C 170.695312 162.726562 171.15625 162.773438 171.625 162.773438 C 172.089844 162.773438 172.550781 162.730469 173.007812 162.640625 C 173.464844 162.546875 173.90625 162.414062 174.339844 162.238281 C 174.769531 162.058594 175.179688 161.84375 175.566406 161.582031 C 175.953125 161.324219 176.3125 161.03125 176.640625 160.703125 C 176.972656 160.375 177.265625 160.019531 177.523438 159.632812 C 177.785156 159.246094 178.003906 158.835938 178.179688 158.40625 C 178.359375 157.976562 178.496094 157.535156 178.585938 157.078125 C 178.679688 156.625 178.722656 156.164062 178.722656 155.699219 C 178.726562 155.230469 178.679688 154.773438 178.589844 154.316406 C 178.5 153.859375 178.367188 153.414062 178.1875 152.984375 C 178.011719 152.554688 177.792969 152.148438 177.535156 151.761719 C 177.273438 151.375 176.980469 151.015625 176.652344 150.6875 C 176.324219 150.355469 175.964844 150.0625 175.578125 149.804688 C 175.191406 149.546875 174.78125 149.328125 174.351562 149.148438 C 173.921875 148.96875 173.480469 148.835938 173.023438 148.742188 C 172.566406 148.652344 172.105469 148.605469 171.640625 148.605469 Z M 172.121094 158.871094 C 171.832031 158.871094 171.550781 158.816406 171.28125 158.703125 C 171.011719 158.589844 170.773438 158.433594 170.566406 158.226562 C 170.359375 158.019531 170.199219 157.78125 170.089844 157.511719 C 169.976562 157.242188 169.921875 156.960938 169.921875 156.671875 C 169.921875 156.378906 169.980469 156.097656 170.089844 155.828125 C 170.203125 155.558594 170.363281 155.320312 170.570312 155.117188 C 170.777344 154.910156 171.015625 154.75 171.285156 154.640625 C 171.554688 154.527344 171.835938 154.472656 172.125 154.472656 C 172.417969 154.472656 172.699219 154.53125 172.96875 154.640625 C 173.238281 154.753906 173.476562 154.914062 173.683594 155.121094 C 173.890625 155.328125 174.046875 155.566406 174.160156 155.835938 C 174.269531 156.105469 174.324219 156.382812 174.324219 156.675781 C 174.324219 156.96875 174.269531 157.246094 174.15625 157.515625 C 174.046875 157.785156 173.886719 158.023438 173.679688 158.230469 C 173.472656 158.433594 173.234375 158.59375 172.964844 158.703125 C 172.695312 158.816406 172.414062 158.871094 172.121094 158.871094 Z M 172.121094 158.871094 " fill-opacity="1" fill-rule="nonzero"/><path fill="#ea392c" d="M 200.792969 155.703125 C 200.800781 156.164062 200.851562 156.621094 200.949219 157.070312 C 201.042969 157.519531 201.183594 157.957031 201.367188 158.378906 C 201.546875 158.800781 201.769531 159.203125 202.03125 159.582031 C 202.289062 159.964844 202.585938 160.316406 202.914062 160.636719 C 203.242188 160.960938 203.597656 161.246094 203.984375 161.5 C 204.371094 161.753906 204.777344 161.96875 205.203125 162.140625 C 205.628906 162.316406 206.070312 162.445312 206.519531 162.535156 C 206.972656 162.625 207.429688 162.667969 207.890625 162.667969 C 208.351562 162.667969 208.808594 162.621094 209.261719 162.53125 C 209.714844 162.441406 210.152344 162.308594 210.578125 162.136719 C 211.003906 161.960938 211.410156 161.746094 211.792969 161.492188 C 212.179688 161.238281 212.535156 160.949219 212.863281 160.625 C 213.191406 160.304688 213.484375 159.949219 213.746094 159.570312 C 214.003906 159.191406 214.226562 158.789062 214.40625 158.363281 C 214.585938 157.941406 214.726562 157.503906 214.820312 157.054688 C 214.917969 156.601562 214.96875 156.148438 214.976562 155.6875 C 214.976562 155.25 214.933594 154.816406 214.851562 154.390625 C 214.140625 155.097656 213.285156 155.449219 212.28125 155.445312 C 211.902344 155.445312 211.53125 155.390625 211.167969 155.273438 C 210.808594 155.160156 210.472656 154.992188 210.160156 154.773438 C 209.851562 154.554688 209.582031 154.292969 209.351562 153.992188 C 209.125 153.6875 208.945312 153.359375 208.820312 153 C 208.695312 152.640625 208.625 152.273438 208.613281 151.894531 C 208.601562 151.515625 208.648438 151.144531 208.753906 150.777344 C 208.859375 150.414062 209.015625 150.074219 209.226562 149.757812 C 209.4375 149.441406 209.691406 149.164062 209.988281 148.925781 C 209.296875 148.71875 208.59375 148.613281 207.875 148.613281 C 207.40625 148.613281 206.945312 148.660156 206.488281 148.75 C 206.035156 148.84375 205.589844 148.976562 205.160156 149.15625 C 204.730469 149.335938 204.320312 149.554688 203.933594 149.8125 C 203.546875 150.070312 203.191406 150.363281 202.863281 150.695312 C 202.53125 151.023438 202.238281 151.382812 201.980469 151.769531 C 201.722656 152.15625 201.503906 152.5625 201.328125 152.992188 C 201.148438 153.421875 201.015625 153.867188 200.925781 154.324219 C 200.835938 154.777344 200.789062 155.238281 200.792969 155.703125 Z M 205.195312 156.675781 C 205.195312 156.382812 205.25 156.105469 205.359375 155.835938 C 205.472656 155.566406 205.628906 155.328125 205.835938 155.121094 C 206.042969 154.914062 206.28125 154.753906 206.550781 154.640625 C 206.820312 154.53125 207.101562 154.472656 207.390625 154.472656 C 207.683594 154.472656 207.964844 154.527344 208.234375 154.640625 C 208.503906 154.75 208.742188 154.910156 208.949219 155.117188 C 209.15625 155.320312 209.316406 155.558594 209.429688 155.828125 C 209.539062 156.097656 209.597656 156.378906 209.597656 156.671875 C 209.597656 156.960938 209.542969 157.242188 209.429688 157.511719 C 209.320312 157.78125 209.160156 158.019531 208.953125 158.226562 C 208.746094 158.433594 208.507812 158.589844 208.238281 158.703125 C 207.96875 158.816406 207.6875 158.871094 207.398438 158.871094 C 207.105469 158.871094 206.824219 158.816406 206.554688 158.707031 C 206.285156 158.59375 206.046875 158.4375 205.839844 158.230469 C 205.632812 158.023438 205.472656 157.785156 205.363281 157.515625 C 205.25 157.246094 205.195312 156.96875 205.195312 156.675781 Z M 205.195312 156.675781 " fill-opacity="1" fill-rule="nonzero"/><g clip-path="url(#ca0db9ae95)"><path fill="#ea392c" d="M 184.949219 142.492188 C 181.492188 140.214844 177.675781 139.539062 173.875 139.421875 C 170.074219 139.304688 166.234375 139.925781 162.175781 140.308594 C 161.160156 140.402344 160.136719 140.492188 159.101562 140.542969 C 158.066406 140.597656 157.011719 140.613281 155.953125 140.585938 C 154.882812 140.554688 153.8125 140.46875 152.75 140.328125 C 151.671875 140.171875 150.613281 139.945312 149.570312 139.644531 C 148.527344 139.332031 147.515625 138.941406 146.535156 138.472656 C 145.558594 137.992188 144.632812 137.425781 143.765625 136.769531 C 142.90625 136.105469 142.140625 135.351562 141.46875 134.503906 C 140.820312 133.667969 140.308594 132.75 139.9375 131.761719 C 140.660156 132.460938 141.433594 133.09375 142.265625 133.660156 C 143.082031 134.175781 143.933594 134.621094 144.824219 135 C 146.578125 135.714844 148.398438 136.1875 150.277344 136.425781 C 153.992188 136.9375 157.796875 136.511719 161.785156 136.140625 L 164.804688 135.878906 C 165.828125 135.8125 166.855469 135.738281 167.898438 135.71875 C 170.027344 135.644531 172.140625 135.792969 174.242188 136.15625 C 175.296875 136.351562 176.335938 136.621094 177.359375 136.960938 C 178.378906 137.304688 179.367188 137.734375 180.316406 138.25 C 181.253906 138.769531 182.125 139.386719 182.933594 140.097656 C 183.714844 140.804688 184.386719 141.601562 184.949219 142.492188 Z M 184.949219 142.492188 " fill-opacity="1" fill-rule="nonzero"/></g><path fill="#ea392c" d="M 183.550781 139.601562 C 182.179688 139.027344 180.785156 138.53125 179.359375 138.109375 C 178.011719 137.722656 176.644531 137.4375 175.25 137.253906 C 173.90625 137.082031 172.558594 137.023438 171.203125 137.074219 C 170.539062 137.109375 169.882812 137.140625 169.203125 137.238281 C 168.527344 137.335938 167.835938 137.417969 167.136719 137.535156 L 164.964844 137.878906 C 164.222656 137.980469 163.472656 138.101562 162.699219 138.175781 C 161.921875 138.25 161.132812 138.308594 160.324219 138.300781 C 159.496094 138.3125 158.675781 138.25 157.859375 138.121094 C 156.191406 137.871094 154.648438 137.292969 153.226562 136.382812 C 151.847656 135.46875 150.710938 134.113281 150.316406 132.601562 C 151.417969 133.550781 152.675781 134.1875 154.09375 134.507812 C 155.402344 134.808594 156.730469 134.914062 158.074219 134.828125 C 160.6875 134.695312 163.421875 133.878906 166.464844 133.394531 C 167.984375 133.167969 169.605469 132.996094 171.257812 133.109375 C 172.890625 133.207031 174.480469 133.527344 176.027344 134.066406 C 179.070312 135.132812 181.808594 137.023438 183.550781 139.601562 Z M 183.550781 139.601562 " fill-opacity="1" fill-rule="nonzero"/><g clip-path="url(#5d940f75f7)"><path fill="#ea392c" d="M 194.566406 142.492188 C 198.027344 140.214844 201.839844 139.539062 205.640625 139.421875 C 209.4375 139.304688 213.28125 139.925781 217.339844 140.308594 C 218.355469 140.402344 219.378906 140.492188 220.414062 140.542969 C 221.449219 140.597656 222.503906 140.613281 223.5625 140.585938 C 224.636719 140.558594 225.703125 140.472656 226.765625 140.332031 C 227.839844 140.179688 228.898438 139.949219 229.941406 139.648438 C 230.988281 139.339844 232 138.949219 232.980469 138.476562 C 233.960938 137.996094 234.882812 137.429688 235.75 136.773438 C 236.609375 136.109375 237.371094 135.355469 238.042969 134.503906 C 238.691406 133.667969 239.203125 132.75 239.574219 131.761719 C 238.855469 132.460938 238.085938 133.09375 237.257812 133.660156 C 236.441406 134.175781 235.59375 134.621094 234.707031 135 C 232.949219 135.714844 231.132812 136.1875 229.25 136.425781 C 225.539062 136.9375 221.730469 136.511719 217.746094 136.140625 L 214.722656 135.878906 C 213.703125 135.8125 212.671875 135.738281 211.632812 135.71875 C 209.503906 135.644531 207.386719 135.792969 205.289062 136.15625 C 204.226562 136.351562 203.1875 136.621094 202.164062 136.960938 C 201.140625 137.304688 200.15625 137.734375 199.207031 138.25 C 198.269531 138.773438 197.398438 139.386719 196.589844 140.097656 C 195.808594 140.804688 195.132812 141.601562 194.566406 142.492188 Z M 194.566406 142.492188 " fill-opacity="1" fill-rule="nonzero"/></g><path fill="#ea392c" d="M 195.96875 139.601562 C 197.339844 139.027344 198.734375 138.53125 200.15625 138.109375 C 201.507812 137.722656 202.875 137.4375 204.265625 137.253906 C 205.609375 137.082031 206.960938 137.023438 208.3125 137.074219 C 208.980469 137.109375 209.636719 137.140625 210.316406 137.238281 C 210.996094 137.335938 211.683594 137.417969 212.386719 137.535156 L 214.546875 137.878906 C 215.289062 137.980469 216.039062 138.101562 216.816406 138.175781 C 217.59375 138.25 218.382812 138.308594 219.191406 138.300781 C 220.015625 138.3125 220.835938 138.25 221.652344 138.121094 C 223.320312 137.875 224.867188 137.292969 226.285156 136.382812 C 227.664062 135.46875 228.800781 134.113281 229.195312 132.601562 C 228.09375 133.550781 226.835938 134.1875 225.421875 134.507812 C 224.109375 134.808594 222.785156 134.914062 221.441406 134.828125 C 218.828125 134.695312 216.089844 133.878906 213.050781 133.394531 C 211.527344 133.167969 209.90625 132.996094 208.257812 133.109375 C 206.625 133.207031 205.035156 133.527344 203.488281 134.066406 C 200.449219 135.132812 197.710938 137.023438 195.96875 139.601562 Z M 195.96875 139.601562 " fill-opacity="1" fill-rule="nonzero"/><path fill="#ff5757" d="M 189.722656 141.289062 C 189.734375 141.269531 189.746094 141.253906 189.761719 141.238281 C 189.773438 141.253906 189.78125 141.273438 189.792969 141.289062 Z M 189.722656 141.289062 " fill-opacity="1" fill-rule="nonzero"/><path fill="#ff5757" d="M 216.289062 114.007812 L 216.289062 130.371094 C 211.140625 130.097656 205.964844 130.109375 201.054688 131.566406 C 196.53125 132.910156 192.222656 135.75 189.765625 139.664062 C 187.300781 135.75 182.988281 132.917969 178.46875 131.566406 C 173.554688 130.109375 168.375 130.097656 163.226562 130.371094 L 163.226562 114.007812 Z M 216.289062 114.007812 " fill-opacity="1" fill-rule="nonzero"/><path fill="#ea392c" d="M 165.53125 180.5 C 170.3125 187.027344 171.664062 195.621094 170.527344 203.625 C 169.820312 208.617188 168.226562 213.425781 166.152344 218.035156 C 164.875 217.339844 163.636719 216.585938 162.4375 215.765625 C 161.234375 214.949219 160.078125 214.074219 158.964844 213.140625 C 157.851562 212.207031 156.785156 211.222656 155.769531 210.183594 C 154.753906 209.144531 153.792969 208.058594 152.882812 206.925781 C 151.976562 205.792969 151.125 204.613281 150.335938 203.398438 C 149.546875 202.179688 148.816406 200.925781 148.152344 199.632812 C 147.484375 198.34375 146.882812 197.023438 146.347656 195.671875 C 145.8125 194.324219 145.347656 192.949219 144.949219 191.554688 C 144.550781 190.15625 144.222656 188.746094 143.964844 187.316406 C 143.707031 185.886719 143.523438 184.449219 143.40625 183 C 143.292969 181.554688 143.25 180.105469 143.28125 178.652344 C 143.308594 177.203125 143.410156 175.753906 143.585938 174.3125 C 143.757812 172.871094 144.003906 171.441406 144.316406 170.027344 C 144.632812 168.609375 145.019531 167.210938 145.472656 165.832031 C 145.929688 164.453125 146.449219 163.101562 147.039062 161.773438 C 147.628906 160.445312 148.28125 159.152344 149 157.886719 C 149.234375 162.253906 151.835938 166.339844 154.882812 169.589844 C 158.363281 173.308594 162.53125 176.398438 165.53125 180.5 Z M 165.53125 180.5 " fill-opacity="1" fill-rule="nonzero"/><path fill="#ea392c" d="M 236.25 179.648438 C 236.253906 181.617188 236.125 183.578125 235.863281 185.53125 C 235.597656 187.480469 235.207031 189.40625 234.683594 191.304688 C 234.160156 193.203125 233.511719 195.054688 232.734375 196.867188 C 231.960938 198.675781 231.066406 200.425781 230.054688 202.117188 C 229.042969 203.804688 227.921875 205.417969 226.691406 206.957031 C 225.460938 208.496094 224.132812 209.941406 222.703125 211.300781 C 221.277344 212.65625 219.765625 213.914062 218.167969 215.066406 C 216.570312 216.21875 214.902344 217.261719 213.164062 218.1875 C 211.050781 213.535156 209.425781 208.675781 208.710938 203.628906 C 207.582031 195.621094 208.925781 187.027344 213.707031 180.503906 C 216.714844 176.402344 220.882812 173.3125 224.355469 169.601562 C 227.503906 166.238281 230.183594 161.976562 230.265625 157.449219 L 230.484375 157.832031 C 232.382812 161.152344 233.820312 164.664062 234.796875 168.363281 C 235.773438 172.0625 236.257812 175.824219 236.25 179.648438 Z M 236.25 179.648438 " fill-opacity="1" fill-rule="nonzero"/><path fill="#ea392c" d="M 193.664062 166.664062 C 193.523438 168.378906 190.96875 172.042969 189.769531 172.242188 C 188.570312 172.042969 186.011719 168.378906 185.875 166.664062 C 186.011719 164.945312 188.570312 161.277344 189.769531 161.082031 C 190.957031 161.28125 193.515625 164.945312 193.664062 166.664062 Z M 193.664062 166.664062 " fill-opacity="1" fill-rule="nonzero"/><g clip-path="url(#eea56938c2)"><path fill="#ea392c" d="M 189.757812 103.832031 L 140.378906 114.691406 L 189.757812 125.550781 L 239.136719 114.691406 Z M 189.757812 103.832031 " fill-opacity="1" fill-rule="nonzero"/></g><g clip-path="url(#cb5cb794fe)"><path fill="#ff5757" d="M 184.503906 214.738281 C 184.222656 214.742188 183.953125 214.789062 183.6875 214.890625 C 183.425781 214.988281 183.1875 215.128906 182.972656 215.3125 C 182.757812 215.496094 182.585938 215.710938 182.449219 215.957031 C 182.3125 216.203125 182.222656 216.464844 182.179688 216.742188 C 181.933594 216.570312 181.667969 216.449219 181.375 216.378906 C 181.082031 216.308594 180.789062 216.292969 180.492188 216.335938 C 180.195312 216.382812 179.914062 216.476562 179.65625 216.628906 C 179.398438 216.78125 179.175781 216.972656 178.992188 217.210938 L 178.992188 217.105469 C 178.992188 216.789062 178.929688 216.488281 178.808594 216.199219 C 178.691406 215.910156 178.519531 215.65625 178.296875 215.433594 C 178.078125 215.214844 177.820312 215.042969 177.53125 214.921875 C 177.242188 214.800781 176.941406 214.742188 176.625 214.742188 C 176.3125 214.742188 176.011719 214.800781 175.722656 214.921875 C 175.433594 215.042969 175.175781 215.214844 174.953125 215.433594 C 174.734375 215.65625 174.5625 215.910156 174.441406 216.199219 C 174.320312 216.488281 174.261719 216.789062 174.261719 217.105469 L 174.261719 223.398438 C 174.257812 223.902344 174.402344 224.359375 174.691406 224.769531 C 174.980469 225.179688 175.363281 225.46875 175.839844 225.632812 C 176.316406 225.800781 176.792969 225.8125 177.277344 225.667969 C 177.757812 225.527344 178.15625 225.257812 178.464844 224.863281 L 178.464844 224.972656 C 178.441406 225.285156 178.476562 225.585938 178.574219 225.882812 C 178.671875 226.179688 178.820312 226.445312 179.023438 226.683594 C 179.226562 226.917969 179.46875 227.109375 179.746094 227.25 C 180.023438 227.390625 180.320312 227.472656 180.628906 227.496094 C 180.941406 227.519531 181.246094 227.484375 181.542969 227.386719 C 181.839844 227.289062 182.105469 227.140625 182.339844 226.9375 C 182.578125 226.734375 182.765625 226.496094 182.910156 226.21875 C 183.050781 225.941406 183.132812 225.644531 183.15625 225.335938 C 183.5625 225.621094 184.011719 225.765625 184.503906 225.765625 C 184.820312 225.765625 185.121094 225.703125 185.410156 225.582031 C 185.699219 225.460938 185.953125 225.292969 186.175781 225.070312 C 186.398438 224.851562 186.566406 224.59375 186.6875 224.304688 C 186.808594 224.015625 186.867188 223.714844 186.871094 223.402344 L 186.871094 217.105469 C 186.871094 216.789062 186.808594 216.488281 186.691406 216.199219 C 186.570312 215.910156 186.398438 215.65625 186.175781 215.433594 C 185.957031 215.210938 185.699219 215.039062 185.410156 214.921875 C 185.121094 214.800781 184.820312 214.738281 184.503906 214.738281 Z M 184.503906 214.738281 " fill-opacity="1" fill-rule="nonzero"/></g><g clip-path="url(#19744d9efc)"><path fill="#ff5757" d="M 195.011719 214.738281 C 195.292969 214.742188 195.566406 214.789062 195.828125 214.890625 C 196.09375 214.988281 196.332031 215.128906 196.546875 215.3125 C 196.757812 215.496094 196.933594 215.710938 197.070312 215.957031 C 197.207031 216.203125 197.296875 216.464844 197.339844 216.742188 C 197.585938 216.566406 197.855469 216.445312 198.148438 216.375 C 198.4375 216.304688 198.734375 216.289062 199.03125 216.335938 C 199.332031 216.378906 199.609375 216.476562 199.871094 216.628906 C 200.128906 216.777344 200.351562 216.972656 200.535156 217.210938 L 200.535156 217.105469 C 200.542969 216.796875 200.609375 216.503906 200.734375 216.21875 C 200.859375 215.9375 201.03125 215.691406 201.25 215.476562 C 201.472656 215.261719 201.726562 215.097656 202.011719 214.980469 C 202.296875 214.867188 202.589844 214.808594 202.898438 214.808594 C 203.207031 214.808594 203.503906 214.867188 203.789062 214.980469 C 204.074219 215.097656 204.328125 215.261719 204.546875 215.476562 C 204.769531 215.691406 204.941406 215.9375 205.066406 216.21875 C 205.1875 216.503906 205.253906 216.796875 205.261719 217.105469 L 205.261719 223.398438 C 205.265625 223.902344 205.121094 224.359375 204.832031 224.769531 C 204.542969 225.179688 204.160156 225.464844 203.6875 225.632812 C 203.210938 225.796875 202.730469 225.808594 202.25 225.667969 C 201.765625 225.527344 201.371094 225.257812 201.0625 224.863281 L 201.0625 224.972656 C 201.085938 225.285156 201.046875 225.585938 200.949219 225.882812 C 200.855469 226.179688 200.703125 226.445312 200.5 226.683594 C 200.296875 226.917969 200.058594 227.109375 199.777344 227.25 C 199.5 227.390625 199.207031 227.472656 198.894531 227.496094 C 198.585938 227.519531 198.28125 227.484375 197.984375 227.386719 C 197.6875 227.289062 197.421875 227.140625 197.183594 226.9375 C 196.945312 226.734375 196.757812 226.496094 196.617188 226.21875 C 196.476562 225.941406 196.394531 225.644531 196.367188 225.335938 C 195.964844 225.621094 195.515625 225.765625 195.019531 225.765625 C 194.707031 225.765625 194.40625 225.703125 194.117188 225.582031 C 193.828125 225.460938 193.570312 225.292969 193.351562 225.070312 C 193.128906 224.851562 192.957031 224.59375 192.835938 224.304688 C 192.71875 224.015625 192.65625 223.714844 192.65625 223.402344 L 192.65625 217.105469 C 192.65625 216.792969 192.714844 216.492188 192.835938 216.203125 C 192.957031 215.914062 193.125 215.660156 193.347656 215.4375 C 193.566406 215.214844 193.820312 215.042969 194.109375 214.921875 C 194.398438 214.800781 194.699219 214.742188 195.011719 214.738281 Z M 195.011719 214.738281 " fill-opacity="1" fill-rule="nonzero"/></g><path fill="#ea392c" d="M 183.75 187.019531 C 182.417969 187.019531 181.414062 185.734375 181.414062 184.03125 C 181.414062 183.59375 181.816406 183.242188 182.320312 183.242188 C 182.820312 183.242188 183.222656 183.59375 183.222656 184.03125 C 183.222656 184.90625 183.625 185.40625 183.777344 185.449219 C 183.902344 185.40625 184.304688 184.90625 184.304688 184.03125 C 184.304688 183.59375 184.703125 183.242188 185.207031 183.242188 C 185.710938 183.242188 186.113281 183.59375 186.113281 184.03125 C 186.085938 185.734375 185.082031 187.019531 183.75 187.019531 Z M 183.75 187.019531 " fill-opacity="1" fill-rule="nonzero"/><path fill="#ea392c" d="M 195.769531 187.019531 C 194.4375 187.019531 193.429688 185.734375 193.429688 184.03125 C 193.429688 183.59375 193.835938 183.242188 194.335938 183.242188 C 194.835938 183.242188 195.238281 183.59375 195.238281 184.03125 C 195.238281 184.90625 195.640625 185.40625 195.792969 185.449219 C 195.917969 185.40625 196.316406 184.90625 196.316406 184.03125 C 196.316406 183.59375 196.722656 183.242188 197.222656 183.242188 C 197.722656 183.242188 198.125 183.59375 198.125 184.03125 C 198.105469 185.734375 197.097656 187.019531 195.769531 187.019531 Z M 195.769531 187.019531 " fill-opacity="1" fill-rule="nonzero"/><path fill="#ea392c" d="M 177.519531 194.429688 C 176.1875 194.429688 175.183594 193.144531 175.183594 191.4375 C 175.183594 191.003906 175.585938 190.648438 176.085938 190.648438 C 176.589844 190.648438 176.992188 191.011719 176.992188 191.4375 C 176.992188 192.316406 177.394531 192.816406 177.546875 192.855469 C 177.671875 192.816406 178.070312 192.3125 178.070312 191.4375 C 178.070312 191.003906 178.472656 190.648438 178.976562 190.648438 C 179.480469 190.648438 179.878906 191.011719 179.878906 191.4375 C 179.855469 193.144531 178.851562 194.429688 177.519531 194.429688 Z M 177.519531 194.429688 " fill-opacity="1" fill-rule="nonzero"/><path fill="#ea392c" d="M 189.757812 194.429688 C 188.425781 194.429688 187.421875 193.144531 187.421875 191.4375 C 187.421875 191.003906 187.824219 190.648438 188.324219 190.648438 C 188.828125 190.648438 189.230469 191.011719 189.230469 191.4375 C 189.230469 192.316406 189.632812 192.816406 189.785156 192.855469 C 189.910156 192.816406 190.308594 192.3125 190.308594 191.4375 C 190.308594 191.003906 190.710938 190.648438 191.214844 190.648438 C 191.714844 190.648438 192.117188 191.011719 192.117188 191.4375 C 192.097656 193.144531 191.09375 194.429688 189.757812 194.429688 Z M 189.757812 194.429688 " fill-opacity="1" fill-rule="nonzero"/><path fill="#ea392c" d="M 202 194.429688 C 200.667969 194.429688 199.664062 193.144531 199.664062 191.4375 C 199.664062 191.003906 200.066406 190.648438 200.566406 190.648438 C 201.066406 190.648438 201.472656 191.011719 201.472656 191.4375 C 201.472656 192.316406 201.871094 192.816406 202.023438 192.855469 C 202.148438 192.816406 202.550781 192.3125 202.550781 191.4375 C 202.550781 191.003906 202.953125 190.648438 203.453125 190.648438 C 203.953125 190.648438 204.359375 191.011719 204.359375 191.4375 C 204.335938 193.144531 203.332031 194.429688 202 194.429688 Z M 202 194.429688 " fill-opacity="1" fill-rule="nonzero"/><path fill="#ea392c" d="M 177.519531 209.246094 C 176.1875 209.246094 175.183594 207.960938 175.183594 206.253906 C 175.183594 205.820312 175.585938 205.46875 176.085938 205.46875 C 176.589844 205.46875 176.992188 205.820312 176.992188 206.253906 C 176.992188 207.132812 177.394531 207.632812 177.546875 207.675781 C 177.671875 207.632812 178.070312 207.132812 178.070312 206.253906 C 178.070312 205.820312 178.472656 205.46875 178.976562 205.46875 C 179.480469 205.46875 179.878906 205.820312 179.878906 206.253906 C 179.855469 207.960938 178.851562 209.246094 177.519531 209.246094 Z M 177.519531 209.246094 " fill-opacity="1" fill-rule="nonzero"/><path fill="#ea392c" d="M 189.757812 209.246094 C 188.425781 209.246094 187.421875 207.960938 187.421875 206.253906 C 187.421875 205.820312 187.824219 205.46875 188.324219 205.46875 C 188.828125 205.46875 189.230469 205.820312 189.230469 206.253906 C 189.230469 207.132812 189.632812 207.632812 189.785156 207.675781 C 189.910156 207.632812 190.308594 207.132812 190.308594 206.253906 C 190.308594 205.820312 190.710938 205.46875 191.214844 205.46875 C 191.714844 205.46875 192.117188 205.820312 192.117188 206.253906 C 192.097656 207.960938 191.09375 209.246094 189.757812 209.246094 Z M 189.757812 209.246094 " fill-opacity="1" fill-rule="nonzero"/><path fill="#ea392c" d="M 202 209.246094 C 200.667969 209.246094 199.664062 207.960938 199.664062 206.253906 C 199.664062 205.820312 200.066406 205.46875 200.566406 205.46875 C 201.066406 205.46875 201.472656 205.820312 201.472656 206.253906 C 201.472656 207.132812 201.871094 207.632812 202.023438 207.675781 C 202.148438 207.632812 202.550781 207.132812 202.550781 206.253906 C 202.550781 205.820312 202.953125 205.46875 203.453125 205.46875 C 203.953125 205.46875 204.359375 205.820312 204.359375 206.253906 C 204.335938 207.960938 203.332031 209.246094 202 209.246094 Z M 202 209.246094 " fill-opacity="1" fill-rule="nonzero"/><path fill="#ea392c" d="M 183.75 201.839844 C 182.417969 201.839844 181.414062 200.550781 181.414062 198.847656 C 181.414062 198.414062 181.816406 198.0625 182.320312 198.0625 C 182.820312 198.0625 183.222656 198.414062 183.222656 198.847656 C 183.222656 199.726562 183.625 200.222656 183.777344 200.265625 C 183.902344 200.222656 184.304688 199.726562 184.304688 198.847656 C 184.304688 198.414062 184.703125 198.0625 185.207031 198.0625 C 185.710938 198.0625 186.113281 198.414062 186.113281 198.847656 C 186.085938 200.550781 185.082031 201.839844 183.75 201.839844 Z M 183.75 201.839844 " fill-opacity="1" fill-rule="nonzero"/><path fill="#ea392c" d="M 195.769531 201.839844 C 194.4375 201.839844 193.429688 200.550781 193.429688 198.847656 C 193.429688 198.414062 193.835938 198.0625 194.335938 198.0625 C 194.835938 198.0625 195.238281 198.414062 195.238281 198.847656 C 195.238281 199.726562 195.640625 200.222656 195.792969 200.265625 C 195.917969 200.222656 196.316406 199.726562 196.316406 198.847656 C 196.316406 198.414062 196.722656 198.0625 197.222656 198.0625 C 197.722656 198.0625 198.125 198.414062 198.125 198.847656 C 198.105469 200.550781 197.097656 201.839844 195.769531 201.839844 Z M 195.769531 201.839844 " fill-opacity="1" fill-rule="nonzero"/></svg>