
<svg xmlns="http://www.w3.org/2000/svg" version="1.1" xmlns:xlink="http://www.w3.org/1999/xlink" preserveAspectRatio="none" x="0px" y="0px" width="90px" height="90px" viewBox="0 0 90 90">
<defs>
<g id="Layer1_0_FILL">
<path fill="#000000" fill-opacity="0.00392156862745098" stroke="none" d="
M 22.4 22.95
Q 22.95 22.95 23.55 23.15 23.95 23.25 24.3 23.05 24.65 22.8 24.8 22.4 24.9 22 24.7 21.65 24.45 21.3 24.05 21.2 23.15 20.95 22.4 20.95 17.25 20.95 13.75 24.6 10.2 28.15 10.2 33.2 10.2 34.4 10.5 35.6 10.55 36 10.95 36.2 11.3 36.4 11.7 36.35 12.1 36.25 12.3 35.9 12.5 35.5 12.45 35.15 12.2 34.2 12.2 33.2 12.2 28.95 15.15 26
L 15.2 26
Q 18.15 22.95 22.4 22.95
M 80.55 20.4
L 80.5 20.4
Q 78.3 18.2 75.75 16.95
L 75.7 16.95
Q 75.25 16.75 74.8 16.55 71.25 14.95 67.2 14.95 59.4 14.95 53.9 20.4
L 49.75 24.6
Q 49.45 24.9 49.45 25.3 49.45 25.7 49.75 26.05 50.05 26.3 50.45 26.3 50.85 26.3 51.2 26
L 55.35 21.8 55.3 21.8
Q 60.2 16.95 67.2 16.95 70.85 16.95 74 18.4 74.4 18.55 74.85 18.75
L 74.9 18.8
Q 77.1 19.9 79.1 21.8
L 79.1 21.85
Q 84 26.85 84 33.75 84 40.7 79.1 45.6
L 45.45 79.7 10.9 45.6
Q 7.95 42.75 6.85 39.2
L 6.85 39.15
Q 6 36.65 6 33.75 6 26.85 10.9 21.85
L 10.95 21.8
Q 15.9 16.95 22.85 16.95 25.05 16.95 27.05 17.5 31.4 18.55 34.75 21.85
L 34.75 21.8 51.8 38.9 39.5 51.4
Q 39.2 51.7 39.2 52.1 39.2 52.5 39.5 52.85
L 50.9 64.05
Q 51.2 64.3 51.6 64.3 52 64.3 52.35 64 52.6 63.7 52.6 63.3 52.6 62.9 52.3 62.6
L 41.65 52.1 53.95 39.6
Q 54.2 39.3 54.2 38.9 54.2 38.5 53.9 38.2
L 36.15 20.4
Q 32.4 16.75 27.55 15.55 25.35 14.95 22.85 14.95 15.05 14.95 9.5 20.4 4 26.05 4 33.75 4 36.95 4.95 39.8
L 4.95 39.75
Q 6.15 43.85 9.5 47.05
L 9.5 47 44.75 81.8
Q 45.05 82.1 45.45 82.1 45.85 82.1 46.15 81.8
L 80.5 47
Q 86 41.5 86 33.75 86 26.05 80.55 20.4 Z"/>
</g>

<g id="Layer0_0_FILL">
<path fill="#E44642" stroke="none" d="
M 24.3 23
Q 24.6634765625 22.8076171875 24.75 22.4 24.8826171875 22.005078125 24.65 21.65 24.457421875 21.28671875 24.05 21.15 23.166015625 20.942578125 22.4 20.95 17.2720703125 20.94921875 13.7 24.6
L 13.75 24.6
Q 10.2052734375 28.1376953125 10.2 33.2 10.1990234375 34.4150390625 10.45 35.55 10.571875 35.979296875 10.9 36.2 11.27578125 36.41953125 11.65 36.3 12.079296875 36.228515625 12.3 35.85 12.519140625 35.5240234375 12.4 35.1 12.20078125 34.184765625 12.2 33.2 12.1947265625 28.9623046875 15.15 26
L 15.15 26
Q 18.127734375 22.9505859375 22.4 22.95 22.9337890625 22.9572265625 23.55 23.1 23.9453125 23.232421875 24.3 23
M 80.5 20.4
L 80.5 20.35
Q 78.283984375 18.212890625 75.75 16.95 75.725 16.93828125 75.7 16.9 75.25 16.725 74.8 16.5 71.2640625 14.9458984375 67.2 14.95 59.3888671875 14.9568359375 53.9 20.4
L 53.85 20.4 49.7 24.6
Q 49.441015625 24.8923828125 49.45 25.3 49.45390625 25.723828125 49.75 26 50.0419921875 26.309765625 50.45 26.3 50.8728515625 26.295703125 51.15 26
L 55.3 21.8 55.3 21.8
Q 60.2111328125 16.9431640625 67.2 16.95 70.8359375 16.95390625 74 18.35 74.4244140625 18.563671875 74.85 18.75 74.8744140625 18.763671875 74.9 18.75 77.1232421875 19.9009765625 79.05 21.8
L 79.1 21.8
Q 83.9927734375 26.871484375 84 33.75 84.003515625 40.689453125 79.1 45.6
L 45.45 79.7 10.9 45.6 10.9 45.55
Q 7.940625 42.7712890625 6.85 39.15
L 6.85 39.1
Q 5.99921875 36.6263671875 6 33.75 6.00703125 26.871484375 10.9 21.8
L 10.9 21.8
Q 15.876953125 16.9546875 22.85 16.95 25.0677734375 16.95234375 27.05 17.45 31.3951171875 18.5650390625 34.75 21.8
L 34.75 21.8 51.8 38.9 39.5 51.4
Q 39.2029296875 51.691015625 39.2 52.1 39.2029296875 52.52265625 39.5 52.8
L 50.9 64
Q 51.19296875 64.3099609375 51.6 64.3 52.0236328125 64.29609375 52.3 64 52.6099609375 63.708203125 52.6 63.3 52.594921875 62.8763671875 52.3 62.55
L 41.6 52.1 53.9 39.6
Q 54.207421875 39.3064453125 54.2 38.9 54.1947265625 38.49296875 53.9 38.2
L 36.15 20.4 36.15 20.35
Q 32.4048828125 16.734765625 27.55 15.5 25.3318359375 14.9474609375 22.85 14.95 15.040625 14.9451171875 9.5 20.35
L 9.45 20.4
Q 3.99296875 26.0455078125 4 33.75 4.00078125 36.9736328125 4.95 39.75
L 4.95 39.7
Q 6.158984375 43.8283203125 9.5 47
L 9.5 47 44.75 81.8
Q 45.0416015625 82.0962890625 45.45 82.1 45.86015625 82.0955078125 46.15 81.8
L 80.5 47
Q 85.996484375 41.510546875 86 33.75 86.0068359375 26.0455078125 80.5 20.4 Z"/>
</g>
</defs>

<g transform="matrix( 1, 0, 0, 1, 0,0) ">
<use xlink:href="#Layer1_0_FILL"/>
</g>

<g transform="matrix( 1, 0, 0, 1, 0,0) ">
<use xlink:href="#Layer0_0_FILL"/>
</g>
</svg>
